<?xml version="1.0" encoding="UTF-8" standalone="no"?>
<!-- Created with Inkscape (http://www.inkscape.org/) -->
<svg
   xmlns:dc="http://purl.org/dc/elements/1.1/"
   xmlns:cc="http://web.resource.org/cc/"
   xmlns:rdf="http://www.w3.org/1999/02/22-rdf-syntax-ns#"
   xmlns:svg="http://www.w3.org/2000/svg"
   xmlns="http://www.w3.org/2000/svg"
   xmlns:xlink="http://www.w3.org/1999/xlink"
   xmlns:sodipodi="http://sodipodi.sourceforge.net/DTD/sodipodi-0.dtd"
   xmlns:inkscape="http://www.inkscape.org/namespaces/inkscape"
   width="1000"
   height="666.66998"
   id="svg2"
   sodipodi:version="0.32"
   inkscape:version="0.45.1"
   version="1.0"
   sodipodi:docname="Bandera_de_Madrid.svg"
   inkscape:output_extension="org.inkscape.output.svg.inkscape"
   sodipodi:docbase="C:\Documents and Settings\Ptah\Mis documentos\Mis imágenes">
  <sodipodi:namedview
     inkscape:window-height="579"
     inkscape:window-width="813"
     inkscape:pageshadow="2"
     inkscape:pageopacity="0.0"
     guidetolerance="10.0"
     gridtolerance="10.0"
     objecttolerance="10.0"
     borderopacity="1.0"
     bordercolor="#666666"
     pagecolor="#ffffff"
     id="base"
     inkscape:zoom="0.57149716"
     inkscape:cx="500"
     inkscape:cy="256.62908"
     inkscape:window-x="110"
     inkscape:window-y="110"
     inkscape:current-layer="layer1" />
  <defs
     id="defs4" />
  <metadata
     id="metadata7">
    <rdf:RDF>
      <cc:Work
         rdf:about="">
        <dc:format>image/svg+xml</dc:format>
        <dc:type
           rdf:resource="http://purl.org/dc/dcmitype/StillImage" />
        <dc:title>Bandera de la Ciudad de Madrid</dc:title>
        <dc:date>2006-06-14</dc:date>
        <dc:creator>
          <cc:Agent>
            <dc:title>Valadrem (http://valadrem.blogspot.com)</dc:title>
          </cc:Agent>
        </dc:creator>
        <dc:description>Bandera de la Ciudad de Madrid

Madrid Flag</dc:description>
        <dc:source>http://commons.wikimedia.org/wiki/Image:Bandera_de_Madrid.svg</dc:source>
        <dc:language>es</dc:language>
        <cc:license
           rdf:resource="http://web.resource.org/cc/PublicDomain" />
        <dc:relation>http://commons.wikimedia.org/wiki/Image:Bandera_de_Madrid.svg</dc:relation>
      </cc:Work>
      <cc:License
         rdf:about="http://web.resource.org/cc/PublicDomain">
        <cc:permits
           rdf:resource="http://web.resource.org/cc/Reproduction" />
        <cc:permits
           rdf:resource="http://web.resource.org/cc/Distribution" />
        <cc:permits
           rdf:resource="http://web.resource.org/cc/DerivativeWorks" />
      </cc:License>
    </rdf:RDF>
  </metadata>
  <g
     inkscape:label="Layer 1"
     inkscape:groupmode="layer"
     id="layer1">
    <rect
       style="fill:#8f003a;fill-opacity:1;fill-rule:evenodd;stroke:none;stroke-width:35;stroke-linejoin:miter;stroke-miterlimit:4;stroke-dasharray:none;stroke-opacity:1"
       id="rect12156"
       width="1000"
       height="666.66699"
       x="0"
       y="0.0029907227" />
    <g
       id="g11983"
       transform="matrix(1.092329,0,0,1.085756,347.9965,44.10771)">
      <path
         sodipodi:nodetypes="cczccc"
         id="path4448"
         d="M 40.64785,193.69358 L 40.64785,347.59261 C 40.64785,387.32976 37.06086,433.0352 137.73737,433.0352 C 237.51535,433.0352 234.96448,385.25905 234.96448,346.0957 L 234.96448,193.62843 L 40.64785,193.69358 z "
         style="fill:#ffffff;fill-opacity:1;fill-rule:evenodd;stroke:#204080;stroke-width:34.99998474;stroke-linecap:butt;stroke-linejoin:miter;stroke-miterlimit:4;stroke-dasharray:none;stroke-opacity:1" />
      <path
         sodipodi:nodetypes="cscccssscccscccccsccccccsccccscc"
         id="path11106"
         d="M 195.43661,378.0206 C 195.3591,376.25103 196.01962,374.22896 195.32359,372.67697 C 194.06831,369.87797 191.95446,367.40355 190.2699,364.76685 C 193.47305,362.58514 197.0501,359.36073 196.31427,355.05617 C 196.19926,351.35446 193.59767,348.52623 192.02919,345.35033 C 188.89685,339.84171 184.75029,334.61089 182.63216,328.82449 C 181.56138,325.8993 183.36375,322.21977 182.54723,319.19762 C 181.47173,315.21692 179.76731,310.66953 177.46542,307.70834 C 176.71959,306.7489 179.82857,304.00592 180.10495,302.65395 C 181.87674,299.6839 182.36073,295.21596 179.43278,292.52235 C 177.77123,291.18591 177.53467,289.05476 175.08238,291.22165 C 174.08106,292.66548 173.27188,292.81809 172.7574,290.99031 C 172.35187,289.56629 171.44208,288.92619 169.96367,289.17001 C 168.47006,288.65361 167.82618,289.44901 167.58128,290.86035 C 165.26,289.06323 162.93873,286.81683 159.04497,285.01971 C 154.67113,284.44459 152.65931,288.98283 153.84112,293.29185 C 153.64542,296.36206 155.74694,298.65061 157.10438,301.17563 C 157.4972,303.76606 156.93783,306.60314 157.46354,309.18316 C 157.9436,311.53916 159.08978,313.12932 160.84209,315.79538 C 162.58644,319.0962 156.0024,317.69588 153.1661,312.89327 C 152.70367,310.92476 152.5912,308.74458 151.91605,306.90472 C 150.83456,306.17694 149.88376,305.07132 148.72623,304.56339 C 146.83027,303.94989 143.41812,305.86752 143.31617,307.0822 C 143.18225,314.17987 145.04833,321.27754 144.91441,328.37521 C 147.01105,331.89456 149.20941,336.02208 153.20433,338.93326 C 154.13478,339.61129 156.2217,338.94188 156.37513,340.40871 C 157.41483,343.73577 158.45454,347.06283 159.49425,350.38989 C 160.63356,355.29347 162.23039,356.58476 164.08099,359.26789 C 165.34475,360.46123 166.61885,361.53093 164.01512,362.49237 C 161.64647,365.74617 171.70255,371.22567 172.07408,372.62924 C 172.37647,373.77159 169.52816,376.44812 168.47984,377.79596 C 177.31567,378.24524 186.60078,377.57132 195.43661,378.0206 z "
         style="fill:#000000;fill-opacity:1;fill-rule:evenodd;stroke:none;stroke-width:1px;stroke-linecap:butt;stroke-linejoin:miter;stroke-opacity:1" />
      <path
         sodipodi:nodetypes="ccsscsccscsccscsscc"
         id="path3972"
         d="M 137.94747,110.94785 L 141.04567,111.51758 C 140.54653,112.77047 140.44317,114.13933 140.44317,115.58129 C 140.44317,122.00711 145.96398,127.2355 152.76038,127.2355 C 158.21564,127.2355 166.86169,123.85747 168.45743,119.19125 C 168.63642,119.31477 169.63218,114.97628 170.14645,115.02921 C 170.57752,115.07459 168.53215,119.27192 168.69097,119.19125 L 168.96414,127.59095 C 165.80039,130.47236 157.4997,132.2496 152.76038,132.2496 C 146.55388,132.2496 141.01794,129.20938 137.8794,124.62131 C 134.7459,129.20938 129.215,132.2496 123.01859,132.2496 C 118.28178,132.2496 111.97101,130.47236 108.80473,127.59095 L 109.08043,119.19125 C 109.24933,119.27192 107.20395,115.07459 107.63252,115.02921 C 108.14174,114.97628 109.14507,119.31477 109.31396,119.19125 C 110.91978,123.85747 117.55828,127.2355 123.0312,127.2355 C 129.82507,127.2355 135.32823,122.00711 135.32823,115.58129 C 135.32823,114.13933 135.24252,112.77047 134.73582,111.51758 L 137.94747,110.94785"
         style="font-size:12px;fill:#ffcc00;fill-opacity:1;stroke:#000000;stroke-width:0.387757;stroke-linejoin:round" />
      <path
         sodipodi:nodetypes="czsszss"
         id="path3994"
         d="M 21.373328,144.67056 C 18.444848,144.67056 16.234667,144.94048 16.245106,141.33288 C 16.255546,137.72528 18.830944,137.9952 21.373328,137.9952 L 254.22853,137.9952 C 257.10749,137.9952 259.40292,137.7635 259.35675,141.33288 C 259.3106,144.90077 257.31853,144.67056 254.22853,144.67056 L 21.373328,144.67056 z "
         style="font-size:12px;fill:#ffcc00;fill-opacity:1;stroke:#000000;stroke-width:0.38775712;stroke-linejoin:round" />
      <path
         d="M 137.74075,82.375764 C 140.34989,84.740384 142.35907,88.277233 142.61368,91.914917 C 142.61368,91.914917 143.08257,91.256957 144.89511,90.598997 C 146.70513,89.941038 148.09416,90.198172 148.09416,90.198172 C 148.09416,90.198172 147.12865,92.840095 146.70513,93.762749 C 146.28414,94.687923 145.73962,97.586982 144.61025,100.08521 C 143.51365,102.60109 141.98345,104.4943 141.98345,104.4943 C 140.98769,103.35736 139.48774,102.61874 137.79621,102.61874 C 136.11475,102.61874 134.61481,103.35736 133.61905,104.4943 C 133.61905,104.4943 132.08885,102.60109 130.98217,100.08521 C 129.86288,97.586982 129.3108,94.687923 128.89737,93.762749 C 128.47637,92.840095 127.49826,90.198172 127.49826,90.198172 C 127.49826,90.198172 128.89737,89.941038 130.69982,90.598997 C 132.50984,91.256957 132.99134,91.914917 132.99134,91.914917 C 133.24343,88.277233 135.14168,84.740384 137.74075,82.375764 z M 133.69468,111.08146 C 132.88798,110.18401 132.37119,109.01935 132.37119,107.75637 C 132.37119,106.50347 132.85016,105.33125 133.65686,104.44892 C 133.65686,104.44892 131.42333,102.77755 128.90745,101.64061 C 127.00164,100.76838 123.46227,100.16588 122.40096,99.969255 C 121.33209,99.765056 119.20948,99.364233 119.20948,99.364233 C 119.20948,99.364233 119.2952,99.870937 119.7061,101.0356 C 120.20524,102.44983 120.70186,103.35736 120.70186,103.35736 C 117.02385,103.57921 113.55758,105.40939 111.15515,107.7841 C 113.55758,110.13864 117.01376,111.92596 120.70186,112.16797 C 120.70186,112.16797 120.20524,113.06542 119.7061,114.48721 C 119.2952,115.63423 119.20948,116.1485 119.20948,116.1485 C 119.20948,116.1485 121.33209,115.75776 122.40096,115.56364 C 123.46227,115.34937 127.00164,114.75443 128.90745,113.87464 C 131.42333,112.73518 133.69468,111.09154 133.69468,111.09154 L 133.69468,111.08146 z M 141.87253,111.08146 C 142.67923,110.18401 143.19349,109.01935 143.19349,107.75637 C 143.19349,106.50347 142.71704,105.33125 141.90782,104.44892 C 141.90782,104.44892 144.14388,102.77755 146.65975,101.64061 C 148.57313,100.76838 152.1125,100.16588 153.1738,99.969255 C 154.22503,99.765056 156.34512,99.364233 156.34512,99.364233 C 156.34512,99.364233 156.27202,99.870937 155.8485,101.0356 C 155.34936,102.44983 154.86282,103.35736 154.86282,103.35736 C 158.54336,103.57921 162.00458,105.40939 164.39945,107.7841 C 162.00458,110.13864 158.55092,111.92596 154.86282,112.16797 C 154.86282,112.16797 155.34936,113.06542 155.8485,114.48721 C 156.26194,115.63423 156.34512,116.1485 156.34512,116.1485 C 156.34512,116.1485 154.23511,115.75776 153.1738,115.56364 C 152.1125,115.34937 148.57313,114.75443 146.65975,113.87464 C 144.14388,112.73518 141.87253,111.09154 141.87253,111.09154 L 141.87253,111.08146 z "
         style="font-size:12px;fill:#ffcc00;fill-opacity:1;stroke:#000000;stroke-width:0.387757;stroke-linejoin:round"
         id="path3964" />
      <path
         id="path11928"
         d="M 132.37119,107.75637 C 132.37119,104.91277 134.80136,102.61874 137.79621,102.61874 C 140.79105,102.61874 143.23131,104.91277 143.23131,107.75637 C 143.23131,110.60248 140.80114,112.90408 137.79621,112.90408 C 134.80136,112.90408 132.37119,110.60248 132.37119,107.75637 z "
         style="font-size:12px;fill:#ffffff;fill-opacity:1;stroke:#000000;stroke-width:0.387757;stroke-linejoin:round" />
      <use
         height="500"
         width="275"
         transform="translate(60,0)"
         id="use4002"
         xlink:href="#path3964"
         y="0"
         x="0" />
      <use
         height="500"
         width="275"
         transform="translate(-60,0)"
         id="use4004"
         xlink:href="#path3964"
         y="0"
         x="0" />
      <use
         height="500"
         width="275"
         transform="translate(-60,0)"
         id="use4006"
         xlink:href="#path3972"
         y="0"
         x="0" />
      <use
         height="500"
         width="275"
         transform="translate(-60,0)"
         id="use4008"
         xlink:href="#path11928"
         y="0"
         x="0" />
      <use
         height="500"
         width="275"
         transform="translate(-28.99231,10.16604)"
         id="use4010"
         xlink:href="#path11928"
         y="0"
         x="0" />
      <use
         height="500"
         width="275"
         transform="translate(60,0)"
         id="use4017"
         xlink:href="#path3972"
         y="0"
         x="0" />
      <use
         height="500"
         width="275"
         transform="translate(30.99969,10)"
         id="use4015"
         xlink:href="#path11928"
         y="0"
         x="0" />
      <use
         height="500"
         width="275"
         transform="translate(60,0)"
         id="use4019"
         xlink:href="#path11928"
         y="0"
         x="0" />
      <g
         id="g4041">
        <path
           style="font-size:12px;fill:#ffcc00;fill-opacity:1;stroke:#000000;stroke-width:0.387757;stroke-linejoin:round"
           d="M 253.1416,110.46099 C 252.80023,109.55902 252.72558,108.433 252.97943,107.26064 C 253.53771,104.71952 255.47615,102.89468 257.31075,103.20052 C 257.54541,103.24735 257.83267,103.33026 258.04289,103.4367 C 258.04289,103.4367 257.08589,97.616119 258.6373,94.269379 C 260.17856,90.905038 264.83999,87.932481 264.83999,87.932481 C 262.42515,84.742785 257.86004,84.142219 254.49146,86.69248 C 252.51574,88.188246 251.26688,90.426939 251.21691,92.649623 L 249.14213,90.852981 C 249.14213,90.852981 246.8406,93.442799 247.94133,97.481929 C 249.05817,101.52149 253.80109,104.98807 253.80109,104.98807 C 253.80109,104.98807 251.66853,103.57033 249.6792,103.05595 C 247.70351,102.54707 244.0492,103.11616 242.21217,103.5046 C 240.37972,103.89908 238.27517,103.9968 238.27517,103.9968 C 238.27517,103.9968 238.47812,104.39017 239.0756,105.28795 C 239.8009,106.35458 240.36109,106.92329 240.36109,106.92329 C 237.63037,108.47842 235.03796,111.07661 233.4438,113.66525 C 235.84649,114.83421 239.04028,115.22718 242.14248,114.31725 C 242.14248,114.31725 241.81591,115.69012 241.61696,117.07703 C 241.46491,118.24188 241.49173,118.71167 241.49173,118.71167 C 241.49173,118.71167 243.37269,117.66708 244.31819,117.14097 C 245.24755,116.61444 248.40724,114.92425 250.00633,113.53658 C 251.18909,112.51782 252.42673,111.25831 253.1416,110.46099 z "
           id="path3952" />
        <path
           sodipodi:nodetypes="cczsccscsscc"
           id="path4025"
           d="M 257.94747,110.94785 L 261.04567,111.51758 C 260.54653,112.77047 262.28617,118.90291 257.8794,124.62131 C 253.4994,130.30496 249.215,132.2496 243.01859,132.2496 C 238.28178,132.2496 231.97101,130.47236 228.80473,127.59095 L 229.08043,119.19125 C 229.24933,119.27192 227.20395,115.07459 227.63252,115.02921 C 228.14174,114.97628 229.14507,119.31477 229.31396,119.19125 C 230.91978,123.85747 237.55828,127.2355 243.0312,127.2355 C 249.82507,127.2355 255.32823,122.00711 255.32823,115.58129 C 255.32823,114.13933 255.24252,112.77047 254.73582,111.51758 L 257.94747,110.94785"
           style="font-size:12px;fill:#ffcc00;fill-opacity:1;stroke:#000000;stroke-width:0.387757;stroke-linejoin:round" />
        <use
           x="0"
           y="0"
           xlink:href="#path11928"
           id="use4027"
           transform="translate(91.09969,10)"
           width="275"
           height="500" />
        <use
           x="0"
           y="0"
           xlink:href="#use4019"
           id="use4021"
           width="275"
           height="500"
           transform="translate(60,0)" />
      </g>
      <use
         height="500"
         width="275"
         transform="matrix(-1,0,0,1,278.3109,0)"
         id="use4047"
         xlink:href="#g4041"
         y="0"
         x="0" />
      <path
         style="font-size:12px;fill:#ffcc00;fill-opacity:1;stroke:#000000;stroke-width:0.38775712;stroke-linejoin:round"
         d="M 21.373328,170.67056 C 18.444848,170.67056 16.234667,170.94048 16.245106,167.33288 C 16.255546,163.72528 18.830944,163.9952 21.373328,163.9952 L 254.22853,163.9952 C 257.10749,163.9952 259.40292,163.7635 259.35675,167.33288 C 259.3106,170.90077 257.31853,170.67056 254.22853,170.67056 L 21.373328,170.67056 z "
         id="path4049"
         sodipodi:nodetypes="czsszss" />
      <path
         style="font-size:12px;fill:#204080;fill-opacity:1;stroke:#000000;stroke-width:0.387757;stroke-linejoin:round"
         d="M 105.03786,154.32784 C 105.03786,151.48424 107.46803,149.19021 110.46288,149.19021 C 113.45772,149.19021 115.89798,151.48424 115.89798,154.32784 C 115.89798,157.17395 113.46781,159.47555 110.46288,159.47555 C 107.46803,159.47555 105.03786,157.17395 105.03786,154.32784 z "
         id="use4924" />
      <use
         height="500"
         width="275"
         transform="translate(56.66666,0)"
         id="use4928"
         xlink:href="#use4924"
         y="0"
         x="0" />
      <use
         height="500"
         width="275"
         transform="translate(113.3333,0)"
         id="use4930"
         xlink:href="#use4924"
         y="0"
         x="0" />
      <use
         height="500"
         width="275"
         transform="translate(-56.66667,0)"
         id="use4932"
         xlink:href="#use4924"
         y="0"
         x="0" />
      <path
         id="path4934"
         d="M 119.92361,154.32784 C 119.92361,151.48424 128.37209,149.19021 138.78367,149.19021 C 149.19523,149.19021 157.67878,151.48424 157.67878,154.32784 C 157.67878,157.17395 149.2303,159.47555 138.78367,159.47555 C 128.37209,159.47555 119.92361,157.17395 119.92361,154.32784 z "
         style="font-size:12px;fill:#40c040;fill-opacity:1;stroke:#000000;stroke-width:0.387757;stroke-linejoin:round" />
      <path
         style="font-size:12px;fill:#40c040;fill-opacity:1;stroke:#000000;stroke-width:0.38775697;stroke-linejoin:round"
         d="M 233.16478,154.32784 C 233.16478,151.48424 239.02592,149.19021 246.24895,149.19021 C 253.47197,149.19021 259.35743,151.48424 259.35743,154.32784 C 259.35743,157.17395 253.4963,159.47555 246.24895,159.47555 C 239.02592,159.47555 233.16478,157.17395 233.16478,154.32784 z "
         id="path4936" />
      <use
         height="500"
         width="275"
         transform="translate(-216.9197,0)"
         id="use4938"
         xlink:href="#path4936"
         y="0"
         x="0" />
      <path
         sodipodi:nodetypes="ccccc"
         id="rect4940"
         d="M 82.134581,148.34465 L 100.57939,153.92619 L 82.134591,160.32115 L 63.689783,154.73961 L 82.134581,148.34465 z "
         style="fill:#e06040;fill-opacity:1;fill-rule:evenodd;stroke:#204080;stroke-width:0.3880001;stroke-linejoin:miter;stroke-miterlimit:4;stroke-opacity:1" />
      <use
         height="500"
         width="275"
         transform="translate(113.3333,0)"
         id="use5816"
         xlink:href="#rect4940"
         y="0"
         x="0" />
      <path
         sodipodi:nodetypes="ccccccccccccc"
         id="path1594"
         d="M 150.07147,201.93635 L 141.89133,201.93635 L 137.80125,209.02057 L 133.71118,201.93635 L 125.53104,201.93635 L 130.71704,194.85213 L 125.53104,187.76792 L 133.71118,187.76792 L 137.80125,180.6837 L 141.89133,187.76792 L 150.07147,187.76792 L 144.88547,194.85213 L 150.07147,201.93635 z "
         style="fill:#ffffff;fill-opacity:1;fill-rule:evenodd;stroke:none;stroke-width:0.22499999;stroke-miterlimit:4;stroke-opacity:1" />
      <use
         transform="translate(-98,0)"
         height="500"
         width="275"
         id="use7564"
         xlink:href="#path1594"
         y="0"
         x="0" />
      <use
         transform="translate(98,0)"
         height="500"
         width="275"
         id="use7566"
         xlink:href="#path1594"
         y="0"
         x="0" />
      <use
         height="500"
         width="275"
         transform="translate(-98,92)"
         id="use7568"
         xlink:href="#path1594"
         y="0"
         x="0" />
      <use
         height="500"
         width="275"
         transform="translate(-98,186)"
         id="use7570"
         xlink:href="#path1594"
         y="0"
         x="0" />
      <use
         height="500"
         width="275"
         transform="translate(98,92)"
         id="use7572"
         xlink:href="#path1594"
         y="0"
         x="0" />
      <use
         height="500"
         width="275"
         transform="translate(98,186)"
         id="use7574"
         xlink:href="#path1594"
         y="0"
         x="0" />
      <path
         sodipodi:nodetypes="ccccccc"
         id="rect9354"
         d="M 131.83736,282.32404 L 147.11286,282.32404 L 147.11286,368.36107 L 155.11286,380.71626 L 123.83736,380.71626 L 131.83736,368.36107 L 131.83736,282.32404 z "
         style="fill:#c0a040;fill-opacity:1;fill-rule:evenodd;stroke:none;stroke-width:35;stroke-linejoin:miter;stroke-miterlimit:4;stroke-opacity:1" />
      <path
         style="font-size:12px;fill:#40c040;fill-opacity:1;stroke:none;stroke-width:0.387757;stroke-linejoin:round"
         d="M 89.372599,252.24436 C 89.372599,234.49522 111.7955,220.17638 139.4286,220.17638 C 167.06166,220.17638 189.57763,234.49522 189.57763,252.24436 C 189.57763,270.00918 167.15474,284.37527 139.4286,284.37527 C 111.7955,284.37527 89.372599,270.00918 89.372599,252.24436 z "
         id="path7584" />
      <path
         id="use8459"
         d="M 95.660424,253.17582 C 95.660424,250.33222 98.090594,248.03819 101.08544,248.03819 C 104.08028,248.03819 106.52054,250.33222 106.52054,253.17582 C 106.52054,256.02193 104.09037,258.32353 101.08544,258.32353 C 98.090594,258.32353 95.660424,256.02193 95.660424,253.17582 z "
         style="font-size:12px;fill:#e06040;fill-opacity:1;stroke:none;stroke-width:0.387757;stroke-linejoin:round" />
      <use
         height="500"
         width="275"
         transform="translate(25.27198,-1.123199)"
         id="use9336"
         xlink:href="#use8459"
         y="0"
         x="0" />
      <use
         height="500"
         width="275"
         transform="translate(13.14143,6.065274)"
         id="use9338"
         xlink:href="#use8459"
         y="0"
         x="0" />
      <use
         height="500"
         width="275"
         transform="translate(19.99294,19.43134)"
         id="use9340"
         xlink:href="#use8459"
         y="0"
         x="0" />
      <use
         height="500"
         width="275"
         transform="translate(32.01117,11.00735)"
         id="use9342"
         xlink:href="#use8459"
         y="0"
         x="0" />
      <use
         height="500"
         width="275"
         transform="translate(38.52572,21.79006)"
         id="use9344"
         xlink:href="#use8459"
         y="0"
         x="0" />
      <use
         height="500"
         width="275"
         transform="translate(48.97147,9.322551)"
         id="use9346"
         xlink:href="#use8459"
         y="0"
         x="0" />
      <use
         height="500"
         width="275"
         transform="translate(60.65274,1.460159)"
         id="use9348"
         xlink:href="#use8459"
         y="0"
         x="0" />
      <use
         height="500"
         width="275"
         transform="translate(76.37753,3.144957)"
         id="use9350"
         xlink:href="#use8459"
         y="0"
         x="0" />
      <use
         height="500"
         width="275"
         transform="translate(63.7977,15.72479)"
         id="use9352"
         xlink:href="#use8459"
         y="0"
         x="0" />
      <path
         style="fill:#40c040;fill-opacity:1;fill-rule:evenodd;stroke:none;stroke-width:34.99998474;stroke-linecap:butt;stroke-linejoin:miter;stroke-miterlimit:4;stroke-dasharray:none;stroke-opacity:1"
         d="M 59.290165,377.57299 C 59.290165,393.95066 71.278844,415.69167 137.58066,415.69167 C 204.10705,415.69167 215.87115,393.71417 215.87115,377.57299 L 59.290165,377.57299 z "
         id="path10230"
         sodipodi:nodetypes="czcc" />
    </g>
  </g>
</svg>
