<?xml version="1.0" encoding="UTF-8" standalone="no"?>
<!-- Created with Inkscape (http://www.inkscape.org/) -->

<svg
   xmlns:dc="http://purl.org/dc/elements/1.1/"
   xmlns:cc="http://creativecommons.org/ns#"
   xmlns:rdf="http://www.w3.org/1999/02/22-rdf-syntax-ns#"
   xmlns:svg="http://www.w3.org/2000/svg"
   xmlns="http://www.w3.org/2000/svg"
   xmlns:xlink="http://www.w3.org/1999/xlink"
   xmlns:sodipodi="http://sodipodi.sourceforge.net/DTD/sodipodi-0.dtd"
   xmlns:inkscape="http://www.inkscape.org/namespaces/inkscape"
   width="2560"
   height="256"
   viewBox="0 0 2560 256"
   id="svg10464"
   version="1.1"
   inkscape:version="0.91 r13725"
   sodipodi:docname="madrid_workshop_logotype.svg"
   inkscape:export-filename="/home/chris/devel/pentandra/scholarly_commons/scoms_wg/madrid_workshop/madrid_workshop_logotype_futura.png"
   inkscape:export-xdpi="89.987"
   inkscape:export-ydpi="89.987">
  <title
     id="title8761">Logotype for the Defining the Scholarly Commons workshop</title>
  <defs
     id="defs10466" />
  <sodipodi:namedview
     id="base"
     pagecolor="#ffffff"
     bordercolor="#666666"
     borderopacity="1.0"
     inkscape:pageopacity="0.0"
     inkscape:pageshadow="2"
     inkscape:zoom="0.27481213"
     inkscape:cx="1139.8634"
     inkscape:cy="128"
     inkscape:document-units="px"
     inkscape:current-layer="layer4"
     showgrid="false"
     units="px"
     inkscape:snap-page="true"
     inkscape:snap-bbox="false"
     inkscape:bbox-nodes="true"
     inkscape:bbox-paths="false"
     inkscape:object-nodes="true"
     inkscape:object-paths="false"
     showguides="false"
     inkscape:guide-bbox="true"
     inkscape:window-width="1362"
     inkscape:window-height="747"
     inkscape:window-x="0"
     inkscape:window-y="17"
     inkscape:window-maximized="0"
     inkscape:snap-nodes="true"
     inkscape:showpageshadow="false"
     showborder="false"
     inkscape:snap-text-baseline="true"
     fit-margin-top="0"
     fit-margin-left="0"
     fit-margin-right="0"
     fit-margin-bottom="0">
    <sodipodi:guide
       position="256,256.00002"
       orientation="0,1"
       id="guide5991" />
    <sodipodi:guide
       position="240,160.00002"
       orientation="0,1"
       id="guide5993" />
    <sodipodi:guide
       position="224,16.000007"
       orientation="0,1"
       id="guide5997" />
    <sodipodi:guide
       position="240,160.00002"
       orientation="1,0"
       id="guide5999" />
    <sodipodi:guide
       position="176,152.00002"
       orientation="1,0"
       id="guide6001" />
    <sodipodi:guide
       position="256,155.32997"
       orientation="1,0"
       id="guide6003" />
    <inkscape:grid
       type="axonomgrid"
       id="grid6007"
       units="px"
       empspacing="3"
       spacingy="9.2"
       gridanglex="30"
       originx="0"
       visible="true"
       enabled="false"
       originy="1.4716797e-05" />
    <inkscape:grid
       type="xygrid"
       id="grid7872"
       dotted="false"
       enabled="true"
       empspacing="2"
       color="#ff2b00"
       opacity="0.1254902"
       snapvisiblegridlinesonly="false"
       spacingx="8"
       spacingy="8"
       originx="0"
       originy="1.4716797e-05" />
    <sodipodi:guide
       position="304,144.00002"
       orientation="1,0"
       id="guide4171" />
    <sodipodi:guide
       position="256,80.000007"
       orientation="0,1"
       id="guide4192" />
  </sodipodi:namedview>
  <metadata
     id="metadata10469">
    <rdf:RDF>
      <cc:Work
         rdf:about="">
        <dc:format>image/svg+xml</dc:format>
        <dc:type
           rdf:resource="http://purl.org/dc/dcmitype/StillImage" />
        <dc:title>Logotype for the Defining the Scholarly Commons workshop</dc:title>
        <dc:date>2016-02-12</dc:date>
        <dc:creator>
          <cc:Agent>
            <dc:title>Scholarly Commons Working Group</dc:title>
          </cc:Agent>
        </dc:creator>
        <dc:publisher>
          <cc:Agent>
            <dc:title>FORCE11</dc:title>
          </cc:Agent>
        </dc:publisher>
        <dc:subject>
          <rdf:Bag>
            <rdf:li>Palacio de Comunicaciones</rdf:li>
            <rdf:li>scholarly commons</rdf:li>
            <rdf:li>scholarship</rdf:li>
            <rdf:li>commoning</rdf:li>
            <rdf:li>knowledge</rdf:li>
            <rdf:li>light</rdf:li>
            <rdf:li>understanding</rdf:li>
          </rdf:Bag>
        </dc:subject>
        <dc:description>A common man with an eye of light; a convergence of thought around scholarship, based on the clock at the top of the Palacio de Comunicaciones in Madrid, Spain.</dc:description>
        <cc:license
           rdf:resource="http://creativecommons.org/licenses/by/3.0/" />
      </cc:Work>
      <cc:License
         rdf:about="http://creativecommons.org/licenses/by/3.0/">
        <cc:permits
           rdf:resource="http://creativecommons.org/ns#Reproduction" />
        <cc:permits
           rdf:resource="http://creativecommons.org/ns#Distribution" />
        <cc:requires
           rdf:resource="http://creativecommons.org/ns#Notice" />
        <cc:requires
           rdf:resource="http://creativecommons.org/ns#Attribution" />
        <cc:permits
           rdf:resource="http://creativecommons.org/ns#DerivativeWorks" />
      </cc:License>
    </rdf:RDF>
  </metadata>
  <g
     inkscape:groupmode="layer"
     id="layer4"
     inkscape:label="madrid">
    <text
       xml:space="preserve"
       style="color:#000000;font-style:normal;font-variant:normal;font-weight:normal;font-stretch:normal;font-size:22.5px;line-height:125%;font-family:'Latin Modern Mono';-inkscape-font-specification:'Latin Modern Mono';text-align:start;letter-spacing:5.73999977px;word-spacing:0px;writing-mode:lr-tb;text-anchor:start;clip-rule:nonzero;display:inline;overflow:visible;visibility:visible;opacity:1;isolation:auto;mix-blend-mode:normal;color-interpolation:sRGB;color-interpolation-filters:linearRGB;solid-color:#000000;solid-opacity:1;fill:#8f003a;fill-opacity:1;fill-rule:evenodd;stroke:none;stroke-width:35;stroke-linecap:butt;stroke-linejoin:miter;stroke-miterlimit:4;stroke-dasharray:none;stroke-dashoffset:0;stroke-opacity:1;color-rendering:auto;image-rendering:auto;shape-rendering:auto;text-rendering:auto;enable-background:accumulate"
       x="304"
       y="222"
       id="text4167"
       sodipodi:linespacing="125%"><tspan
         sodipodi:role="line"
         id="tspan4169"
         x="304"
         y="222"
         style="color:#000000;font-style:normal;font-variant:normal;font-weight:normal;font-stretch:normal;font-size:90px;font-family:'Function Pro';-inkscape-font-specification:'Function Pro';letter-spacing:0px;clip-rule:nonzero;display:inline;overflow:visible;visibility:visible;isolation:auto;mix-blend-mode:normal;color-interpolation:sRGB;color-interpolation-filters:linearRGB;solid-color:#000000;solid-opacity:1;fill:#8f003a;fill-opacity:1;fill-rule:evenodd;stroke:none;stroke-width:35;stroke-linecap:butt;stroke-linejoin:miter;stroke-miterlimit:4;stroke-dasharray:none;stroke-dashoffset:0;stroke-opacity:1;color-rendering:auto;image-rendering:auto;shape-rendering:auto;text-rendering:auto;enable-background:accumulate">Reimagining Research Communications</tspan></text>
    <rect
       style="color:#000000;clip-rule:nonzero;display:inline;overflow:visible;visibility:visible;opacity:1;isolation:auto;mix-blend-mode:normal;color-interpolation:sRGB;color-interpolation-filters:linearRGB;solid-color:#000000;solid-opacity:1;fill:#8f003a;fill-opacity:1;fill-rule:evenodd;stroke:none;stroke-width:35;stroke-linecap:butt;stroke-linejoin:miter;stroke-miterlimit:4;stroke-dasharray:none;stroke-dashoffset:0;stroke-opacity:1;color-rendering:auto;image-rendering:auto;shape-rendering:auto;text-rendering:auto;enable-background:accumulate"
       id="rect11026"
       width="256"
       height="255.99998"
       x="0"
       y="796.36218"
       transform="translate(0,-796.36216)" />
    <text
       xml:space="preserve"
       style="color:#000000;font-style:normal;font-variant:normal;font-weight:normal;font-stretch:normal;font-size:22.5px;line-height:125%;font-family:'EB Garamond';-inkscape-font-specification:'EB Garamond';text-align:start;letter-spacing:0px;word-spacing:0px;writing-mode:lr-tb;text-anchor:start;clip-rule:nonzero;display:inline;overflow:visible;visibility:visible;opacity:1;isolation:auto;mix-blend-mode:normal;color-interpolation:sRGB;color-interpolation-filters:linearRGB;solid-color:#000000;solid-opacity:1;fill:#8f003a;fill-opacity:1;fill-rule:evenodd;stroke:none;stroke-width:35;stroke-linecap:butt;stroke-linejoin:miter;stroke-miterlimit:4;stroke-dasharray:none;stroke-dashoffset:0;stroke-opacity:1;color-rendering:auto;image-rendering:auto;shape-rendering:auto;text-rendering:auto;enable-background:accumulate"
       x="304"
       y="111.99999"
       id="text4159"
       sodipodi:linespacing="125%"><tspan
         sodipodi:role="line"
         x="304"
         y="111.99999"
         id="tspan4163"
         style="color:#000000;font-style:normal;font-variant:normal;font-weight:bold;font-stretch:normal;font-size:120px;font-family:'Function Caps';-inkscape-font-specification:'Function Caps Bold';letter-spacing:0px;clip-rule:nonzero;display:inline;overflow:visible;visibility:visible;isolation:auto;mix-blend-mode:normal;color-interpolation:sRGB;color-interpolation-filters:linearRGB;solid-color:#000000;solid-opacity:1;fill:#8f003a;fill-opacity:1;fill-rule:evenodd;stroke:none;stroke-width:35;stroke-linecap:butt;stroke-linejoin:miter;stroke-miterlimit:4;stroke-dasharray:none;stroke-dashoffset:0;stroke-opacity:1;color-rendering:auto;image-rendering:auto;shape-rendering:auto;text-rendering:auto;enable-background:accumulate"
         dx="0 0 0 0 0">Defining the Scholarly Commons</tspan></text>
    <text
       xml:space="preserve"
       style="font-style:normal;font-variant:normal;font-weight:normal;font-stretch:normal;font-size:22.5px;line-height:125%;font-family:'EB Garamond';-inkscape-font-specification:'EB Garamond';text-align:start;letter-spacing:5.73999977px;word-spacing:0px;writing-mode:lr-tb;text-anchor:start;fill:#000000;fill-opacity:1;stroke:none;stroke-width:1px;stroke-linecap:butt;stroke-linejoin:miter;stroke-opacity:1"
       x="648.86267"
       y="337.36209"
       id="text4194"
       sodipodi:linespacing="125%"><tspan
         sodipodi:role="line"
         id="tspan4196"
         x="648.86267"
         y="337.36209" /></text>
    <text
       xml:space="preserve"
       style="font-style:normal;font-variant:normal;font-weight:normal;font-stretch:normal;font-size:22.5px;line-height:125%;font-family:'EB Garamond';-inkscape-font-specification:'EB Garamond';text-align:start;letter-spacing:5.73999977px;word-spacing:0px;writing-mode:lr-tb;text-anchor:start;fill:#000000;fill-opacity:1;stroke:none;stroke-width:1px;stroke-linecap:butt;stroke-linejoin:miter;stroke-opacity:1"
       x="522.50366"
       y="256"
       id="text4168"
       sodipodi:linespacing="125%"><tspan
         sodipodi:role="line"
         id="tspan4170"
         x="522.50366"
         y="256" /></text>
    <text
       xml:space="preserve"
       style="font-style:normal;font-variant:normal;font-weight:normal;font-stretch:normal;font-size:22.5px;line-height:125%;font-family:'EB Garamond';-inkscape-font-specification:'EB Garamond';text-align:start;letter-spacing:5.73999977px;word-spacing:0px;writing-mode:lr-tb;text-anchor:start;fill:#000000;fill-opacity:1;stroke:none;stroke-width:1px;stroke-linecap:butt;stroke-linejoin:miter;stroke-opacity:1"
       x="529.76215"
       y="256"
       id="text4172"
       sodipodi:linespacing="125%"><tspan
         sodipodi:role="line"
         id="tspan4174"
         x="529.76215"
         y="256" /></text>
  </g>
  <g
     inkscape:label="eye of light"
     inkscape:groupmode="layer"
     id="layer1"
     transform="translate(0,-796.36216)"
     style="display:inline">
    <path
       style="color:#000000;clip-rule:nonzero;display:inline;overflow:visible;visibility:visible;opacity:1;isolation:auto;mix-blend-mode:normal;color-interpolation:sRGB;color-interpolation-filters:linearRGB;solid-color:#000000;solid-opacity:1;fill:#ffcc00;fill-opacity:1;fill-rule:nonzero;stroke:none;stroke-width:1;stroke-linecap:butt;stroke-linejoin:miter;stroke-miterlimit:4;stroke-dasharray:none;stroke-dashoffset:0;stroke-opacity:1;color-rendering:auto;image-rendering:auto;shape-rendering:auto;text-rendering:auto;enable-background:accumulate"
       d="m 96.5,64 a 64.500023,64.500023 0 0 0 -5.375,0.28125 L 96.5,128.5 110.86523,65.681641 A 64.500023,64.500023 0 0 0 96.5,64 Z m 0,64.5 44.66016,-46.464844 a 64.500023,64.500023 0 0 0 -12.78711,-9.55664 L 96.5,128.5 Z m 0,0 61.3125,-19.71875 A 64.500023,64.500023 0 0 0 151.75,95.421875 L 96.5,128.5 Z m 0,0 62.68164,14.88281 A 64.500023,64.500023 0 0 0 161,128.5 64.500023,64.500023 0 0 0 160.80273,124.77148 L 96.5,128.5 Z m 0,0 47.74414,43.2207 a 64.500023,64.500023 0 0 0 9.39258,-13.35937 L 96.5,128.5 Z m 0,0 20.91406,60.88867 a 64.500023,64.500023 0 0 0 13.89258,-6.6875 L 96.5,128.5 Z m 0,0 -10.708984,63.5918 A 64.500023,64.500023 0 0 0 96.5,193 a 64.500023,64.500023 0 0 0 6.37891,-0.33398 L 96.5,128.5 Z m 0,0 -32.191406,55.75977 a 64.500023,64.500023 0 0 0 9.617187,4.62109 L 96.5,128.5 Z m 0,0 -55.765625,32.19531 a 64.500023,64.500023 0 0 0 10.207031,13.36524 L 96.5,128.5 Z m 0,0 -64.5,0 a 64.500023,64.500023 0 0 0 2.294922,16.66602 L 96.5,128.5 Z m 0,0 L 42.923828,92.712891 A 64.500023,64.500023 0 0 0 34.222656,111.8125 L 96.5,128.5 Z m 0,0 L 73.189453,68.492188 A 64.500023,64.500023 0 0 0 57.091797,77.560547 L 96.5,128.5 Z M 90.353516,64.322266 a 64.500023,64.500023 0 0 0 -1.140625,0.146484 64.500023,64.500023 0 0 1 1.140625,-0.146484 z m -6.136719,0.914062 a 64.500023,64.500023 0 0 0 -1.625,0.363281 64.500023,64.500023 0 0 1 1.625,-0.363281 z m 28.988283,1.042969 a 64.500023,64.500023 0 0 1 3.10937,0.876953 64.500023,64.500023 0 0 0 -3.10937,-0.876953 z m -35.468752,0.572265 a 64.500023,64.500023 0 0 0 -0.894531,0.298829 64.500023,64.500023 0 0 1 0.894531,-0.298829 z m 41.615232,1.414063 a 64.500023,64.500023 0 0 1 2.97656,1.169922 64.500023,64.500023 0 0 0 -2.97656,-1.169922 z m 6.32422,2.787109 a 64.500023,64.500023 0 0 1 2.18945,1.113282 64.500023,64.500023 0 0 0 -2.18945,-1.113282 z m -70.427733,7.910157 a 64.500023,64.500023 0 0 0 -1.496094,1.34375 64.500023,64.500023 0 0 1 1.496094,-1.34375 z m -4.744141,4.371093 a 64.500023,64.500023 0 0 0 -1.298828,1.425782 64.500023,64.500023 0 0 1 1.298828,-1.425782 z m -4.308594,4.855469 a 64.500023,64.500023 0 0 0 -1.02539,1.380859 64.500023,64.500023 0 0 1 1.02539,-1.380859 z M 33.142578,116.63477 a 64.500023,64.500023 0 0 0 -0.474609,3.13476 64.500023,64.500023 0 0 1 0.474609,-3.13476 z m 125.773442,27.93359 a 64.500023,64.500023 0 0 1 -0.89844,3.08984 64.500023,64.500023 0 0 0 0.89844,-3.08984 z m -1.91797,6.1582 a 64.500023,64.500023 0 0 1 -1.19727,2.9668 64.500023,64.500023 0 0 0 1.19727,-2.9668 z m -120.189456,2.00782 a 64.500023,64.500023 0 0 0 0.4375,1.11523 64.500023,64.500023 0 0 1 -0.4375,-1.11523 z m 117.318356,4.69921 a 64.500023,64.500023 0 0 1 -0.24609,0.50196 64.500023,64.500023 0 0 0 0.24609,-0.50196 z m -114.378903,1.57227 a 64.500023,64.500023 0 0 0 0.261719,0.51172 64.500023,64.500023 0 0 1 -0.261719,-0.51172 z m 103.503903,13.84375 a 64.500023,64.500023 0 0 1 -1.52148,1.52148 64.500023,64.500023 0 0 0 1.52148,-1.52148 z m -4.63867,4.42969 a 64.500023,64.500023 0 0 1 -1.75195,1.42968 64.500023,64.500023 0 0 0 1.75195,-1.42968 z m -82.968749,1.03515 a 64.500023,64.500023 0 0 0 1.542969,1.23047 64.500023,64.500023 0 0 1 -1.542969,-1.23047 z m 77.499999,3.22461 a 64.500023,64.500023 0 0 1 -0.45117,0.31055 64.500023,64.500023 0 0 0 0.45117,-0.31055 z m -72.271483,0.63867 a 64.500023,64.500023 0 0 0 1.558594,1.00586 64.500023,64.500023 0 0 1 -1.558594,-1.00586 z m 54.968753,7.78907 a 64.500023,64.500023 0 0 1 -1.03321,0.29882 64.500023,64.500023 0 0 0 1.03321,-0.29882 z m -37.943362,0.23632 a 64.500023,64.500023 0 0 0 1.480468,0.47657 64.500023,64.500023 0 0 1 -1.480468,-0.47657 z m 4.455078,1.14454 a 64.500023,64.500023 0 0 0 3.310546,0.72851 64.500023,64.500023 0 0 1 -3.310546,-0.72851 z m 27.466794,0.20507 a 64.500023,64.500023 0 0 1 -1.8125,0.33008 64.500023,64.500023 0 0 0 1.8125,-0.33008 z"
       transform="translate(0,796.36216)"
       id="path8067"
       inkscape:connector-curvature="0" />
    <path
       style="color:#000000;clip-rule:nonzero;display:inline;overflow:visible;visibility:visible;opacity:1;isolation:auto;mix-blend-mode:normal;color-interpolation:sRGB;color-interpolation-filters:linearRGB;solid-color:#000000;solid-opacity:1;fill:#ffffff;fill-opacity:1;fill-rule:nonzero;stroke:none;stroke-width:1;stroke-linecap:butt;stroke-linejoin:miter;stroke-miterlimit:4;stroke-dasharray:none;stroke-dashoffset:0;stroke-opacity:1;color-rendering:auto;image-rendering:auto;shape-rendering:auto;text-rendering:auto;enable-background:accumulate"
       d="M 145.00005,924.86218 A 48.500023,48.500023 0 0 1 96.500023,973.36221 48.500023,48.500023 0 0 1 48,924.86218 48.500023,48.500023 0 0 1 96.500023,876.36216 48.500023,48.500023 0 0 1 145.00005,924.86218 Z"
       id="circle8069"
       inkscape:connector-curvature="0" />
    <path
       cx="96.500023"
       cy="924.86218"
       r="64.500023"
       id="path8071"
       style="color:#000000;clip-rule:nonzero;display:inline;overflow:visible;visibility:visible;opacity:1;isolation:auto;mix-blend-mode:normal;color-interpolation:sRGB;color-interpolation-filters:linearRGB;solid-color:#000000;solid-opacity:1;fill:#ffcc00;fill-opacity:1;fill-rule:nonzero;stroke:#ffcc00;stroke-width:1;stroke-linecap:butt;stroke-linejoin:miter;stroke-miterlimit:4;stroke-dasharray:none;stroke-dashoffset:0;stroke-opacity:1;color-rendering:auto;image-rendering:auto;shape-rendering:auto;text-rendering:auto;enable-background:accumulate"
       d=""
       inkscape:connector-curvature="0" />
  </g>
  <g
     inkscape:groupmode="layer"
     id="layer3"
     inkscape:label="convergence"
     style="display:inline">
    <path
       style="color:#000000;clip-rule:nonzero;display:inline;overflow:visible;visibility:visible;opacity:1;isolation:auto;mix-blend-mode:normal;color-interpolation:sRGB;color-interpolation-filters:linearRGB;solid-color:#000000;solid-opacity:1;fill:#ffcc00;fill-opacity:1;fill-rule:nonzero;stroke:none;stroke-width:1;stroke-linecap:butt;stroke-linejoin:miter;stroke-miterlimit:4;stroke-dasharray:none;stroke-dashoffset:0;stroke-opacity:1;color-rendering:auto;image-rendering:auto;shape-rendering:auto;text-rendering:auto;enable-background:accumulate"
       d="m 128,0 48,0 0,16 64,0 0,80 16,0 0,80 -32,0 0,64 -64,0 0,16 -32,0 0,-48 64,0 0,-48 48,0 0,-48 -32,0 0,-64 -64,0 0,-16 -16,0 z"
       id="path7949"
       inkscape:connector-curvature="0"
       sodipodi:nodetypes="ccccccccccccccccccccccc" />
  </g>
  <g
     inkscape:groupmode="layer"
     id="layer2"
     inkscape:label="Palacio de Comunicaciones"
     style="display:none"
     transform="translate(0,-44)"
     sodipodi:insensitive="true">
    <image
       sodipodi:absref="/home/chris/devel/pentandra/scholarly_commons/scoms_wg/madrid_workshop/9301215.jpg"
       xlink:href="9301215.jpg"
       transform="matrix(0.01745241,0.9998477,-0.9998477,0.01745241,0,0)"
       style="display:inline;opacity:0.8"
       y="-1126.9285"
       x="-3174.4038"
       id="image4382"
       preserveAspectRatio="none"
       height="4680.0142"
       width="7067.0244" />
  </g>
</svg>
