<?xml version="1.0" encoding="UTF-8" standalone="no"?>
<!-- Created with Inkscape (http://www.inkscape.org/) -->

<svg
   xmlns:dc="http://purl.org/dc/elements/1.1/"
   xmlns:cc="http://creativecommons.org/ns#"
   xmlns:rdf="http://www.w3.org/1999/02/22-rdf-syntax-ns#"
   xmlns:svg="http://www.w3.org/2000/svg"
   xmlns="http://www.w3.org/2000/svg"
   xmlns:xlink="http://www.w3.org/1999/xlink"
   xmlns:sodipodi="http://sodipodi.sourceforge.net/DTD/sodipodi-0.dtd"
   xmlns:inkscape="http://www.inkscape.org/namespaces/inkscape"
   sodipodi:docname="palacio_de_comunicaciones.svg"
   inkscape:version="0.91 r13725"
   version="1.1"
   id="svg2"
   viewBox="0 0 1221.25 808.75002"
   height="808.75"
   width="1221.25">
  <defs
     id="defs4">
    <inkscape:path-effect
       effect="spiro"
       id="path-effect7253"
       is_visible="true" />
    <inkscape:path-effect
       effect="spiro"
       id="path-effect7239"
       is_visible="true" />
    <marker
       inkscape:stockid="Arrow1Mstart"
       orient="auto"
       refY="0"
       refX="0"
       id="Arrow1Mstart"
       style="overflow:visible"
       inkscape:isstock="true">
      <path
         id="path4896"
         d="M 0,0 5,-5 -12.5,0 5,5 0,0 Z"
         style="fill:#ffffff;fill-opacity:0.75;fill-rule:evenodd;stroke:#94c5f2;stroke-width:1pt;stroke-opacity:1"
         transform="matrix(0.4,0,0,0.4,4,0)"
         inkscape:connector-curvature="0" />
    </marker>
    <marker
       inkscape:stockid="Arrow1Lend"
       orient="auto"
       refY="0"
       refX="0"
       id="Arrow1Lend"
       style="overflow:visible"
       inkscape:isstock="true">
      <path
         id="path4893"
         d="M 0,0 5,-5 -12.5,0 5,5 0,0 Z"
         style="fill:#ffffff;fill-opacity:0.75;fill-rule:evenodd;stroke:#ffffff;stroke-width:1pt;stroke-opacity:1"
         transform="matrix(-0.8,0,0,-0.8,-10,0)"
         inkscape:connector-curvature="0" />
    </marker>
    <marker
       inkscape:stockid="Arrow1Lstart"
       orient="auto"
       refY="0"
       refX="0"
       id="Arrow1Lstart"
       style="overflow:visible"
       inkscape:isstock="true">
      <path
         id="path4890"
         d="M 0,0 5,-5 -12.5,0 5,5 0,0 Z"
         style="fill:#ffffff;fill-opacity:0.75;fill-rule:evenodd;stroke:#ffffff;stroke-width:1pt;stroke-opacity:1"
         transform="matrix(0.8,0,0,0.8,10,0)"
         inkscape:connector-curvature="0" />
    </marker>
    <inkscape:path-effect
       effect="spiro"
       id="path-effect4387"
       is_visible="true" />
  </defs>
  <sodipodi:namedview
     units="px"
     inkscape:snap-page="true"
     inkscape:window-maximized="0"
     inkscape:window-y="17"
     inkscape:window-x="0"
     inkscape:window-height="747"
     inkscape:window-width="1362"
     showgrid="false"
     inkscape:current-layer="layer5"
     inkscape:document-units="px"
     inkscape:cy="404.375"
     inkscape:cx="610.625"
     inkscape:zoom="0.72548618"
     inkscape:pageshadow="2"
     inkscape:pageopacity="0.0"
     borderopacity="1.0"
     bordercolor="#666666"
     pagecolor="#ffffff"
     id="base"
     inkscape:snap-bbox="true"
     inkscape:bbox-paths="false"
     inkscape:bbox-nodes="true"
     showguides="true"
     inkscape:guide-bbox="true"
     inkscape:snap-text-baseline="true"
     fit-margin-top="0"
     fit-margin-left="0"
     fit-margin-right="0"
     fit-margin-bottom="0"
     inkscape:object-paths="true"
     inkscape:object-nodes="false"
     inkscape:snap-midpoints="false"
     inkscape:snap-intersection-paths="true" />
  <metadata
     id="metadata7">
    <rdf:RDF>
      <cc:Work
         rdf:about="">
        <dc:format>image/svg+xml</dc:format>
        <dc:type
           rdf:resource="http://purl.org/dc/dcmitype/StillImage" />
        <dc:title></dc:title>
      </cc:Work>
    </rdf:RDF>
  </metadata>
  <g
     inkscape:groupmode="layer"
     id="layer4"
     inkscape:label="blue"
     style="display:inline"
     sodipodi:insensitive="true">
    <rect
       transform="translate(1e-5,0)"
       style="color:#000000;clip-rule:nonzero;display:inline;overflow:visible;visibility:visible;opacity:1;isolation:auto;mix-blend-mode:normal;color-interpolation:sRGB;color-interpolation-filters:linearRGB;solid-color:#000000;solid-opacity:1;fill:#8f003a;fill-opacity:1;fill-rule:evenodd;stroke:none;stroke-width:5.84486294;stroke-linecap:butt;stroke-linejoin:miter;stroke-miterlimit:4;stroke-dasharray:none;stroke-dashoffset:0;stroke-opacity:1;color-rendering:auto;image-rendering:auto;shape-rendering:auto;text-rendering:auto;enable-background:accumulate"
       id="rect7242"
       width="1221.25"
       height="808.75"
       x="-1.1482422e-05"
       y="7.32422e-07" />
  </g>
  <g
     inkscape:groupmode="layer"
     id="layer3"
     inkscape:label="palacio de comunicaciones"
     style="display:none"
     transform="translate(149.43748,-129.819)"
     sodipodi:insensitive="true">
    <image
       sodipodi:absref="/home/chris/devel/pentandra/scholarly_commons/scoms_wg/madrid_workshop/9301215.jpg"
       xlink:href="9301215.jpg"
       width="1221.25"
       height="808.75"
       preserveAspectRatio="none"
       id="image4382"
       x="-149.43748"
       y="129.819"
       style="display:inline" />
    <path
       style="fill:none;fill-rule:evenodd;stroke:#000000;stroke-width:1px;stroke-linecap:butt;stroke-linejoin:miter;stroke-opacity:1"
       d="m -149.43748,599.48604 199.86597,-24.81095 170.91987,26.18934 457.62415,16.54063 187.46051,-17.91902 172.29818,49.6219"
       id="path7251"
       inkscape:connector-curvature="0"
       inkscape:original-d="m -149.43748,599.48604 199.86597,-24.81095 170.91987,26.18934 457.62415,16.54063 187.46051,-17.91902 172.29818,49.6219"
       inkscape:path-effect="#path-effect7253" />
  </g>
  <g
     inkscape:groupmode="layer"
     id="layer1"
     inkscape:label="outline"
     transform="translate(6.7412109e-6,-4.8828133e-7)"
     style="display:inline">
    <path
       id="path7255"
       style="fill:none;fill-rule:evenodd;stroke:#ffffff;stroke-width:4;stroke-linecap:butt;stroke-linejoin:miter;stroke-miterlimit:4;stroke-dasharray:32,4;stroke-dashoffset:0;stroke-opacity:1"
       d="m 2.158995,575.6988 193.571805,-12.30151 170.91987,13.78386 464.51608,11.02709 184.70375,-8.27032 35.838,-1.37838 96.487,17.91902 39.4295,-3.3037 M 2.67193,450.08815 l 19.62854,-1.21548 0.58151,2.73208 20.98318,-2.87783 0.14708,-5.04588 10.09447,0.1452 0.929363,2.61702 21.606854,-4.23104 0.664864,-4.89181 9.599233,0.40408 2.042785,2.14331 17.583181,-2.63358 1.98329,-8.40971 5.6318,0.46489 5.18365,2.66688 0,-54.05351 -6.158,-4.10534 -4.78955,-6.84221 4.3106,-2.32636 7.32117,-2.12108 0.22361,-5.47861 0.78181,-2.3908 0.1266,-5.1282 -2.32704,-1.71732 3.20815,-2.42545 0.0151,-12.6237 -1.36232,-2.39477 1.3868,-16.07878 2.16608,-1.69368 -0.48465,-3.43541 -1.6265,-2.76913 0.0982,-1.97753 2.55929,-0.10876 0.22746,-5.38247 -2.21504,-0.35583 -0.0406,-2.75117 8.89488,0 0.023,2.78895 -1.85709,0.15935 0.12355,5.50946 2.78838,1.61057 0.14106,2.46827 -1.77644,0.80998 0.004,4.95565 3.04932,0.60407 0.022,17.35313 -0.27535,12.27524 4.34169,-0.86774 0.40753,1.57179 1.55194,0.11366 0.0611,-1.60556 1.90044,-0.27805 -0.0141,-4.72568 3.03534,-0.32091 0.0482,3.76255 1.5207,-0.0776 0.14137,2.20363 1.78038,0.015 -0.32668,-1.51277 1.27369,-1.07577 4.11187,-0.46732 0.80824,1.60552 1.5895,-0.0522 -0.12943,-2.26411 2.48711,-0.64904 -0.14721,-4.13761 2.7889,-0.30348 0.0679,4.13343 3.34244,0.30626 0.24539,-2.36481 4.77767,-0.1275 0.19277,1.89206 2.88667,0.63241 0.74101,1.84468 7.31856,-0.0429 0.30402,-7.93285 3.67034,-1.00671 -0.0947,-10.62699 1.42697,-0.61725 -0.009,-2.98739 -1.53571,-0.48835 -0.0652,-2.8261 1.60468,-0.5988 0.0368,-4.13048 3.62788,-0.36916 0.004,-11.29817 3.08531,-0.23265 0.1478,-6.73073 -2.02392,-0.34768 0.0286,-2.6792 2.7419,-0.68537 0.10139,-6.05974 -1.65056,-0.46931 0.43469,-2.36913 8.64778,0.2899 0.35503,2.9129 -2.49799,0.70649 -0.0301,4.7686 2.70849,1.79552 0.1704,3.30754 -1.75723,0.11901 0.10237,5.0125 3.41689,3.2823 0.1286,7.60736 4.75122,1.12048 0.31448,3.45584 -0.68053,1.85968 2.03449,1.14929 -0.19556,1.99696 -1.64288,0.47309 0.1493,2.65552 1.88475,0.84511 -0.12377,2.6847 0.18856,5.62692 -1.47441,1.72812 5.21702,1.48047 0.65712,2.60862 3.15629,-0.37875 5.56373,1.83931 3.83297,0.59864 0.55781,1.7535 2.97786,0.0752 -0.28776,-1.31003 3.00423,-0.63502 1.47874,2.90868 5.10713,-0.30544 2.62701,3.85216 2.66591,-0.97659 9.24051,-0.28038 0.9667,1.28384 8.87332,2.12098 4.13297,1.12611 2.25591,0.70118 0.0969,-10.7722 -0.89483,-0.30237 -0.10756,-5.81289 -1.38441,0.0109 -0.80527,-4.4939 2.85643,-0.39187 -0.31658,-4.14674 2.59112,-0.52734 -0.16701,-3.10652 -6.43463,-3.91484 -3.11448,-7.15066 1.30667,-5.60189 7.47699,-4.01991 0.42615,-15.43702 1.70791,-2.11795 -0.0297,-3.9877 -2.15429,-1.32108 0.29534,-5.54938 1.46898,-0.53597 0.056,-15.12638 -1.56733,-1.0605 0.27695,-1.84619 1.58073,-0.76094 0.59079,-12.06624 3.54428,0.088 0.2603,11.32699 3.2002,1.32022 0.97729,11.53971 7.69189,3.70668 -2.28474,2.44966 -1.19041,3.36858 2.13721,0.94901 -0.21813,4.26195 3.57637,-2.11715 0.20322,-14.71197 -1.86416,-0.49727 0.25829,-3.7307 2.77332,-0.35155 -0.9416,-2.3859 -1.76674,-0.92209 2.05598,-1.00286 0.57417,-8.52397 2.28179,-1.31197 -2.61894,-2.63432 2.40121,-0.89418 -0.008,-12.20154 4.33864,0.23435 0.2113,11.39313 2.12668,0.62965 -0.58694,3.37474 -2.11554,1.10118 0.52021,6.03579 1.68737,0.32543 -0.3231,10.1657 2.18401,0.35053 0.53685,14.05854 6.39887,-0.33585 0.3,-4.33382 3.52833,-1.81801 -0.38298,-3.06125 -1.84639,-3.19501 0.80532,-1.77462 9.06011,-0.12028 1.78627,2.64583 -1.00034,2.13396 -1.58873,-0.18986 -0.18618,3.72729 3.63973,2.07336 0.42372,5.79077 8.37367,-0.0329 -0.67183,-10.74527 1.609,-3.60608 0.38219,-15.5174 -1.65716,-1.3472 0.12253,-2.7036 1.8402,-1.34221 0.77329,-10.44042 3.20167,-0.24024 0.87214,11.06724 2.03151,1.09762 0.0212,2.94107 -1.63931,0.77933 1.68013,2.00287 1.08867,11.9151 1.07346,15.48611 7.46377,0.76554 -0.12689,-9.00747 -1.39971,-0.73061 -0.4313,-2.59998 1.24027,-0.0722 -0.32854,-6.43302 4.18625,-2.54742 -0.15453,-9.18905 2.43174,-2.42563 1.53792,2.71338 0.44612,8.50144 1.29429,2.33232 -1.18664,2.42594 -0.19068,6.04447 1.3731,3.77197 -1.06499,2.62656 -3.8e-4,2.94301 1.97121,2.42509 -0.78025,2.86011 -0.871,2.9006 1.46794,4.29105 -0.0194,15.18685 7.37252,5.90976 0.88086,7.37251 -7.98823,7.23549 -0.0456,7.9702 4.0575,1.07337 -3.00769,5.85138 -0.56818,37.98675 3.2467,2.0658 1.13207,8.45808 4.84976,2.19428 -3.11945,4.61258 -0.23314,4.39352 -4.58403,2.29201 -0.0385,5.6239 2.09028,2.9164 -2.29554,2.11443 -0.0176,6.36877 4.49429,3.71202 -0.93418,25.49074 1.6448,2.24226 -1.89676,1.21655 -0.0685,4.46811 28.44437,0.41372 0.27876,-8.11058 -1.14369,0.006 -0.18941,-4.02836 1.51247,-1.08433 0.0722,-9.42192 -1.63211,-3.51538 -4.00082,-1.81152 -0.49843,-4.414 10.4515,-28.18102 0.79416,-9.11053 10.36498,-0.52604 0.81609,8.18517 34.94015,1.85999 0.64442,-2.18767 7.82726,-0.90516 1.38999,3.26404 21.01653,-0.14639 0.90755,-25.01677 -2.44476,-2.05866 0.0246,-7.92085 1.72993,-1.7974 0.35476,-12.33843 1.45478,-8.29904 10.59868,-0.0906 0.46985,-7.27238 2.72189,-3.7661 1.08532,-21.07577 2.36002,-1.41422 7.25295,-0.36212 1.77923,6.36286 1.41446,-2.0975 7.40227,0.0777 0.31687,-60.46674 -2.52137,-1.13511 -0.009,-4.80244 1.5853,-0.26514 -0.30465,-14.84235 -2.7113,-2.11995 0.71877,-38.71436 1.94461,-1.58924 -0.50313,-8.2117 1.90333,-1.89536 -1.63087,-9.33988 2.54639,-2.13084 -0.24814,-5.52405 -1.95283,-2.20833 1.85396,-2.92824 -0.4815,-4.19937 3.58748,-2.25304 4.49062,2.62155 -1.88814,0.24834 0.4107,7.05245 3.0018,0.13921 0.16727,-1.18738 -0.98572,-2.33225 2.15901,-2.41588 0.35084,-3.43747 -1.64146,-0.76745 -0.13363,-2.79171 1.48284,-1.95788 0.28403,-10.54498 -1.61797,-2.18826 0.48167,-3.24666 1.98343,-1.43474 0.90247,-4.13344 2.53666,0.89713 -0.0188,5.31818 2.2896,1.36901 -2.08742,3.69768 -0.41748,7.48152 2.23455,8.31479 -0.17765,3.69822 1.16842,0.27122 -0.27745,-12.29489 -0.71375,-1.40641 1.73633,-2.14991 -1.76738,-1.33749 0.7,-3.89087 2.12765,-2.07061 -1.42931,-2.22646 -0.31608,-6.62529 1.72619,-1.75551 -0.28053,-9.02491 -2.49122,-2.5096 3.33155,-2.84433 -0.14446,-5.40571 3.16961,-0.21412 0.20836,5.25853 2.69499,2.7973 -1.85276,3.0179 0.541,8.73483 2.04737,4.04258 1.7832,12.55386 2.15772,2.12211 -2.07169,0.61781 0.62466,3.34305 2.48526,0.0268 0.0926,-7.50202 -2.15945,-1.83088 0.58465,-4.05508 2.29663,-2.52406 -0.21105,-2.01318 -1.9729,-2.48493 3.96991,-5.5889 -0.15646,-11.58417 -1.17675,-1.96494 1.6913,-1.99364 0.78635,-5.61663 3.61056,-0.31379 0.78434,5.12673 2.4954,1.75356 -1.70259,3.08489 -0.0561,11.6305 4.39832,5.26372 -0.40403,2.37548 -1.67881,0.87122 1.134,5.26433 1.51297,2.42967 -2.3577,2.06196 0.0498,12.45671 6.83285,0.14665 0.3666,-4.28221 6.41629,-0.75631 -0.0472,-2.69384 3.68384,-1.58849 0.0452,-7.71315 4.96196,-0.79515 2.76405,1.84777 -0.0718,5.93851 2.09873,3.31877 0.28351,2.98899 3.19433,0.40582 3.13976,5.18111 3.21621,0.25429 -0.17498,-11.16003 1.11353,-5.15123 -0.33726,-9.80506 -1.50072,-2.91623 1.80135,-3.10437 0.19781,-6.38489 -2.14205,-3.75645 2.16978,-2.27704 0.37478,-5.0793 2.84642,0.15501 0.88061,4.55055 2.5547,2.73508 -1.93518,3.30336 -0.20566,7.42857 1.62904,3.2647 -0.64838,2.18453 0.61416,10.11497 0.52734,5.53951 0.0773,14.82829 2.54683,0.91834 -0.37397,-8.76035 -1.14127,-3.50683 1.20235,-3.54229 0.41979,-6.11214 -1.38628,-1.97498 1.49436,-2.26275 -0.0759,-10.08248 -2.38203,-3.1984 1.9698,-1.6634 1.29616,-5.80364 2.54415,-0.0929 0.46146,5.32535 2.39672,2.23487 -1.52707,3.28329 -0.15921,10.01653 1.75389,1.79748 -1.37353,2.79245 0.33994,4.49229 1.28095,2.66468 -1.75577,3.53165 1.74032,3.00049 -1.52691,20.70557 4.02216,0.1878 -0.9961,-5.77035 2.34018,-2.94134 3.25223,1.89437 -1.20614,1.8275 0.55672,3.40352 3.10154,3.32177 -1.14273,7.11849 -0.2349,4.18873 4.53599,4.00146 -1.87587,2.65929 0.037,3.94819 1.83233,0.91748 -0.2809,21.61517 1.58028,0.52345 -0.10378,2.48648 -1.65168,2.22566 0.0266,4.58746 -1.55609,0.002 0.0869,2.7496 -1.13769,0.78472 -0.26025,7.84485 2.60062,0.54644 0.0599,3.92395 -2.70514,1.84005 -0.14501,45.24899 3.62332,-3.32621 6.60663,-0.18485 2.73252,4.06003 0.023,19.16146 7.07794,0.0968 -0.0925,7.85793 2.42601,0.0839 -0.67549,2.96953 7.07113,2.821 0.4348,-3.07293 9.12771,0.24071 -0.0675,6.30351 2.1857,0.22446 -0.0683,14.25438 3.46147,1.68525 -0.24046,6.32747 -2.28036,2.40363 0.37685,51.00023 8.31387,0.98312 1.18375,9.47912 94.38625,2.46347 -0.28873,-5.5138 10.50574,0.27217 -0.12094,6.18579 2.57129,2.07345 -2.03417,3.36715 -0.0989,4.40362 2.17745,3.03268 6.02551,0.58988 -7.18774,8.56549 -0.81706,25.35962 25.70472,6.73138 15.93112,-2.04221 11.58578,4.81629 0.60436,3.6821 2.6748,-0.77522 -0.0356,-3.62271 -2.09908,-1.81191 0.0482,-9.5753 3.12226,-0.77658 0.0329,-9.41591 -1.86888,-1.89709 1.88348,-2.15302 0.0373,-10.5858 -4.77399,-2.11323 0.28893,-13.44512 5.08563,-3.6208 -0.17302,-33.90924 -2.29201,-2.33999 3.01454,-2.58575 -0.27059,-10.38986 -6.19517,-3.04203 -0.21241,-8.34713 2.85975,-6.91044 4.25977,-4.88854 0.88353,-2.56164 0.65012,-8.78214 -1.49595,-0.99238 0.0578,-3.41589 -1.00694,-0.50865 0.36521,-4.41731 2.14745,0.0546 0.31144,-11.58316 0.78984,-0.54154 0.4287,-11.49903 1.13989,-0.90503 0.28179,-9.86417 1.75997,-1.10352 1.14712,1.30954 0.70461,8.79618 1.19949,0.60235 0.6774,2.86942 -1.64634,1.6592 0.29864,12.27137 1.03697,0.54093 0.35232,11.36729 3.75462,0.63122 0.80608,-3.28371 2.08689,-3.10359 0.55115,-4.76745 -1.38816,-0.003 -0.28104,-3.33445 8.82866,-0.84799 0.48929,2.19313 -2.60678,0.8033 0.0225,2.98033 3.43879,1.29566 1.77024,1.54771 -0.68095,4.01787 5.23465,-0.63048 0.40314,-8.17922 -1.48691,-1.07903 1.12146,-2.54196 1.35801,-5.26325 0.0942,-13.62696 -1.20697,-1.26464 1.53114,-1.82206 1.13288,-9.83476 1.41302,-1.4802 1.52518,1.94171 0.10127,8.40173 1.74354,0.18615 0.8728,2.10362 -1.84234,0.61316 -0.0817,14.04918 1.27394,0.98891 0.15001,15.61456 6.27791,-0.14542 -0.0678,-4.13294 3.37248,-2.65894 0.0495,-2.81228 -1.69062,-1.06161 0.16823,-3.39766 8.10655,-0.51328 0.54591,3.93354 -2.35167,0.0623 0.63337,3.84341 2.87921,2.42103 -0.31188,4.55029 6.2967,-0.20484 -0.33575,-9.58433 1.25251,-0.68105 0.17535,-10.5207 1.17293,-1.1636 -1.86078,-2.3635 0.97183,-1.84253 -1.98894,-1.89743 1.86529,-1.67467 -0.11521,-9.58698 2.92015,-0.51876 0.79614,8.81141 2.25953,2.44417 -1.57611,2.57922 0.70227,1.42061 -0.9273,1.72134 0.75198,1.7073 0.0317,9.19909 2.26129,2.54823 -1.0198,1.53625 0.0698,1.64997 3.02087,1.75695 -2.12415,1.36596 0.006,6.2133 -0.88335,1.24022 0.10783,6.21119 0.81428,4.42247 4.60897,1.23701 0.32958,3.45865 2.44969,0.0203 0.23802,11.7245 -5.90225,7.31396 -0.18285,3.15647 -1.65265,3.70702 0.0182,3.04061 2.3223,0.35317 -0.0907,1.90603 -2.39905,2.79827 0.63802,19.5429 3.17461,-0.92021 0.58031,-9.11114 0.38727,-1.29899 0.38456,-8.10466 2.05043,-0.6364 0.51547,-9.77753 1.31639,1.55923 1.004,-6.90061 -1.58106,-2.38741 2.17588,-1.54092 0.21527,-4.45997 -0.90228,-1.95022 2.85743,-1.72509 2.43993,0.83226 -0.85911,2.05976 -0.009,4.62409 2.17948,2.37237 -1.57753,1.57356 1.05116,6.17004 1.55287,3.09588 0.30833,9.80729 -1.46842,0.62681 0.88483,2.00795 0.16942,9.46683 9.88784,-0.41371 0.39396,1.11809 4.09385,0.0655 0.82704,-1.11752 6.40734,-0.57539 1.20867,1.08236 2.77265,0.26891 1.66747,-2.13405 1.93215,0.4246 4.69788,0.44096 7.42101,-0.63645 1.59934,-0.8768 -0.51444,-2.23476 -1.37417,-1.86977 0.9286,-1.97903 0.25342,-1.55459 -1.59168,-1.42145 -0.0215,-3.37425 3.55871,-1.08838 3.37336,0.82541 0.14315,2.03842 -1.59035,1.98432 0.32482,2.14922 1.95089,1.25624 -1.34244,1.95132 0.007,2.4399 4.3192,1.11306 6.32692,-2.23228 6.01722,1.55434 2.87648,-1.53491 3.74617,-1.21091 5.65922,-0.20842 0.8235,-13.40138 -1.8761,-5.22398 -0.729,-7.52145 3.5981,0.43909 0.4288,-5.96546 -1.542,-2.70488 2.2099,-2.34302 0.3163,-3.89808 -1.9862,-2.27821 1.1435,-1.24359 5.8058,-0.43739 0.2748,2.25397 -1.4658,0.78647 0.2546,3.29273 1.9783,1.65762 -0.5251,2.46551 -0.2057,4.93128 3.0832,0.73006 -0.01,10.00784 0.4639,3.21077 1.6367,1.39351 -0.4221,13.86389 18.6643,10.2315 0.8469,-2.82508 0.3961,-4.43301 0.5298,-9.22392 1.385,-0.6064 0.1006,-3.48925 1.9947,-1.70242 0.4744,-4.12337 -2.4235,-1.598 1.673,-1.68191 0.4335,-4.73473 -1.782,-2.51135 7.007,-0.94 -1.0136,2.80305 -0.024,3.88721 2.6597,1.64594 -2.2209,2.58772 0.4423,4.23798 1.8198,0.6667 -0.7739,2.14802 1.2181,2.09671 -0.2772,20.84215 1.7333,1.3542 -1.3288,3.69984 0.5856,7.63017 8.7716,5.5052 -2.301,2.76457 -0.2552,2.01247 -5.6521,4.26732 -0.3761,6.89647 2.6662,0.55706 -2.336,3.04351 -0.2673,35.07176 3.9019,-3.03559 4.3493,-0.4415 2.0337,1.68135 -1.8365,4.09894 0.6237,1.28064 0.1755,3.60161 3.0978,2.18728 13.4099,0.75378 0.7928,3.07619 1.55,-1.76807 0.137,-8.98859 1.6372,-2.09856 -1.9129,-3.40282 1.4523,-2.86873 -1.2771,-1.28778 -0.3013,-8.32094 2.0955,-2.15063 0.3952,-3.67521 -1.1894,-1.46505 1.2109,-1.57819 0.3236,-2.75693 -1.7438,-1.42742 2.1489,-2.42093 3.8752,0.9908 0.173,1.56391 -1.1318,0.71302 -0.166,3.13171 1.9178,1.44662 -1.0597,1.33439 -0.349,2.96457 2.093,0.23502 -0.01,16.308 9.9094,-4.31017 -0.4389,-2.2686 2.7254,-0.92187 -0.35,-6.89752 1.9504,-0.33103 -0.182,-1.62865 -1.3293,-0.0993 -0.5221,-2.90635 1.562,-0.58507 -0.1813,-9.31405 1.6562,0.7509 0.3222,-4.33317 -0.8142,-1.01358 -0.3089,-1.84299 0.9381,-0.31985 0.3405,-3.43113 -1.0696,-1.63807 0.027,-1.17579 5.303,-0.86326 0.1314,2.03653 -0.5692,0.91934 0,2.49177 2.0742,0.83493 -0.5664,6.39437 1.8902,1.15396 0.022,4.11547 3.0054,0.98168 -0.4202,13.73038 1.642,1.12958 4.1738,-2.87403 3.371,1.62524 8.4104,-0.73978 2.7033,-2.90439 3.2358,1.46168 3.9347,-2.94228 2.772,1.71922 2.8179,-0.73016 1.9235,-3.32802 2.0783,2.74433 2.2476,0.26978 1.8758,-1.45633 4.7958,-1.11366 0.725,-1.40148 -0.3099,-17.04874 1.097,-2.19401 0.025,-4.70131 -0.8207,-1.64541 0.9537,-1.80075 1.3173,-1.46856 -1.3512,-1.77425 -0.063,-2.56495 5.3499,-0.47171 -0.8971,4.77237 1.4596,1.33124 0.272,3.88694 -0.4232,1.9894 1.3318,1.31627 0.2351,5.463 1.3884,1.9899 -0.1444,13.09637 9.4765,6.85878 -0.037,-17.81078 1.4461,-1.76907 -0.1777,-3.92799 0.5983,-0.76383 0.046,-2.20956 -2.0249,-2.11394 0.028,-1.70273 6.4551,-0.0851 -0.363,6.15889 1.1349,0.73655 0.5817,14.68802 1.2343,1.38274 -0.9111,8.38727 1.5038,1.53457 0.087,9.26337 5.1443,3.20389 0.5236,3.74708 -1.4618,0.44281 0.067,2.97048 -2.2832,0.26494 -0.882,2.29635 0.6776,4.56742 -0.9729,2.5852 1.9829,220.02586 -174.8484,9.2466 -97.26415,-4.44946 -7.8005,-2.63132 -72.87459,-0.0214 -34.33861,2.90166 -79.71204,-0.80362 -7.91976,1.97332 -54.91681,-0.27282 -5.28922,-2.04843 -71.80209,-0.65741 -15.30998,-0.21661 -63.37858,-0.59097 -11.08175,-1.30078 -109.81073,0.009 -42.76938,2.99646 -40.12074,-3.46975 -107.51968,3.84593 L 1.64583,701.30887 C 0.90955,651.03409 0.71626,439.33126 2.67216,450.08874 Z"
       inkscape:connector-curvature="0"
       sodipodi:nodetypes="ccccccccccccccccccccccccccccccccccccccccccccccccccccccccccccccccccccccccccccccccccccccccccccccccccccccccccccccccccccccccccccccccccccccccccccccccccccccccccccccccccccccccccccccccccccccccccccccccccccccccccccccccccccccccccccccccccccccccccccccccccccccccccccccccccccccccccccccccccccccccccccccccccccccccccccccccccccccccccccccccccccccccccccccccccccccccccccccccccccccccccccccccccccccccccccccccccccccccccccccccccccccccccccccccccccccccccccccccccccccccccccccccccccccccccccccccccccccccccccccccccccccccccccccccccccccccccccccccccccccccccccccccccccccccccccccccccccccccccccccccccccccccccccccccccccccccccccccccccccccccccccccccccccccccccccccccccccccccccccccccccccccccccccccccccccccccccccccccccccccccccccccccccccccccccccccccccccccccccccccccccccccccccccccccccccccccccccccccccccccccccccccccccccccccccccccccccccccccccccccccccccccccccccccccccccccccccccccccccccccccccccccccccccccccccccccccccccccccccccccc" />
  </g>
  <g
     inkscape:groupmode="layer"
     id="layer5"
     inkscape:label="clock"
     style="display:inline">
    <g
       style="display:inline;opacity:1"
       transform="matrix(0,-0.30133639,0.30133639,0,406.72267,206.42412)"
       id="g7273">
      <rect
         style="color:#000000;clip-rule:nonzero;display:inline;overflow:visible;visibility:visible;opacity:1;isolation:auto;mix-blend-mode:normal;color-interpolation:sRGB;color-interpolation-filters:linearRGB;solid-color:#000000;solid-opacity:1;fill:#8f003a;fill-opacity:1;fill-rule:evenodd;stroke:none;stroke-width:35;stroke-linecap:butt;stroke-linejoin:miter;stroke-miterlimit:4;stroke-dasharray:none;stroke-dashoffset:0;stroke-opacity:1;color-rendering:auto;image-rendering:auto;shape-rendering:auto;text-rendering:auto;enable-background:accumulate"
         id="rect7275"
         width="256"
         height="255.99998"
         x="-122.48647"
         y="422.99185" />
      <path
         style="color:#000000;clip-rule:nonzero;display:inline;overflow:visible;visibility:visible;opacity:1;isolation:auto;mix-blend-mode:normal;color-interpolation:sRGB;color-interpolation-filters:linearRGB;solid-color:#000000;solid-opacity:1;fill:#ffcc00;fill-opacity:1;fill-rule:nonzero;stroke:#ffffff;stroke-width:5.98816395;stroke-linecap:butt;stroke-linejoin:miter;stroke-miterlimit:4;stroke-dasharray:35.92898277, 5.98816379;stroke-dashoffset:0;stroke-opacity:1;color-rendering:auto;image-rendering:auto;shape-rendering:auto;text-rendering:auto;enable-background:accumulate"
         d="m -25.986463,486.99181 a 64.500023,64.500023 0 0 0 -5.375,0.28125 l 5.375,64.21875 14.365227,-62.81836 a 64.500023,64.500023 0 0 0 -14.365227,-1.68164 z m 0,64.5 44.660157,-46.46484 a 64.500023,64.500023 0 0 0 -12.78711,-9.55664 l -31.873047,56.02148 z m 0,0 61.312497,-19.71875 a 64.500023,64.500023 0 0 0 -6.0625,-13.35937 l -55.249997,33.07812 z m 0,0 62.681637,14.88281 a 64.500023,64.500023 0 0 0 1.81836,-14.88281 64.500023,64.500023 0 0 0 -0.19727,-3.72852 l -64.302727,3.72852 z m 0,0 47.744137,43.2207 a 64.500023,64.500023 0 0 0 9.39258,-13.35937 l -57.136717,-29.86133 z m 0,0 20.914057,60.88867 a 64.500023,64.500023 0 0 0 13.89258,-6.6875 l -34.806637,-54.20117 z m 0,0 -10.708984,63.5918 a 64.500023,64.500023 0 0 0 10.708984,0.9082 64.500023,64.500023 0 0 0 6.378907,-0.33398 l -6.378907,-64.16602 z m 0,0 -32.191406,55.75977 a 64.500023,64.500023 0 0 0 9.617187,4.62109 l 22.574219,-60.38086 z m 0,0 -55.765625,32.19531 a 64.500023,64.500023 0 0 0 10.207031,13.36524 l 45.558594,-45.56055 z m 0,0 -64.5,0 a 64.500023,64.500023 0 0 0 2.294922,16.66602 l 62.205078,-16.66602 z m 0,0 -53.576172,-35.78711 a 64.500023,64.500023 0 0 0 -8.701172,19.09961 l 62.277344,16.6875 z m 0,0 L -49.29701,491.484 a 64.500023,64.500023 0 0 0 -16.097656,9.06836 l 39.408203,50.93945 z m -6.146484,-64.17773 a 64.500023,64.500023 0 0 0 -1.140625,0.14648 64.500023,64.500023 0 0 1 1.140625,-0.14648 z m -6.136719,0.91406 a 64.500023,64.500023 0 0 0 -1.625,0.36328 64.500023,64.500023 0 0 1 1.625,-0.36328 z m 28.98828,1.04297 a 64.500023,64.500023 0 0 1 3.10937,0.87695 64.500023,64.500023 0 0 0 -3.10937,-0.87695 z m -35.468749,0.57227 a 64.500023,64.500023 0 0 0 -0.894531,0.29882 64.500023,64.500023 0 0 1 0.894531,-0.29882 z m 41.615229,1.41406 a 64.500023,64.500023 0 0 1 2.97656002,1.16992 64.500023,64.500023 0 0 0 -2.97656002,-1.16992 z m 6.32422,2.78711 a 64.500023,64.500023 0 0 1 2.18945,1.11328 64.500023,64.500023 0 0 0 -2.18945,-1.11328 z m -70.42773,7.91015 a 64.500023,64.500023 0 0 0 -1.496094,1.34375 64.500023,64.500023 0 0 1 1.496094,-1.34375 z m -4.744141,4.3711 a 64.500023,64.500023 0 0 0 -1.298828,1.42578 64.500023,64.500023 0 0 1 1.298828,-1.42578 z m -4.308594,4.85547 a 64.500023,64.500023 0 0 0 -1.02539,1.38086 64.500023,64.500023 0 0 1 1.02539,-1.38086 z m -13.052734,28.44531 a 64.500023,64.500023 0 0 0 -0.474609,3.13476 64.500023,64.500023 0 0 1 0.474609,-3.13476 z m 125.773439,27.93359 a 64.500023,64.500023 0 0 1 -0.89844,3.08984 64.500023,64.500023 0 0 0 0.89844,-3.08984 z m -1.91797,6.1582 a 64.500023,64.500023 0 0 1 -1.19727,2.9668 64.500023,64.500023 0 0 0 1.19727,-2.9668 z m -120.189453,2.00782 a 64.500023,64.500023 0 0 0 0.4375,1.11523 64.500023,64.500023 0 0 1 -0.4375,-1.11523 z m 117.318353,4.69921 a 64.500023,64.500023 0 0 1 -0.24609,0.50196 64.500023,64.500023 0 0 0 0.24609,-0.50196 z m -114.3789,1.57227 a 64.500023,64.500023 0 0 0 0.261719,0.51172 64.500023,64.500023 0 0 1 -0.261719,-0.51172 z m 103.5039,13.84375 a 64.500023,64.500023 0 0 1 -1.52148,1.52148 64.500023,64.500023 0 0 0 1.52148,-1.52148 z m -4.63867,4.42969 a 64.500023,64.500023 0 0 1 -1.75195,1.42968 64.500023,64.500023 0 0 0 1.75195,-1.42968 z m -82.968746,1.03515 a 64.500023,64.500023 0 0 0 1.542969,1.23047 64.500023,64.500023 0 0 1 -1.542969,-1.23047 z m 77.499996,3.22461 a 64.500023,64.500023 0 0 1 -0.45117,0.31055 64.500023,64.500023 0 0 0 0.45117,-0.31055 z m -72.27148,0.63867 a 64.500023,64.500023 0 0 0 1.558594,1.00586 64.500023,64.500023 0 0 1 -1.558594,-1.00586 z m 54.96875,7.78907 a 64.500023,64.500023 0 0 1 -1.03321,0.29882 64.500023,64.500023 0 0 0 1.03321,-0.29882 z m -37.943359,0.23632 a 64.500023,64.500023 0 0 0 1.480468,0.47657 64.500023,64.500023 0 0 1 -1.480468,-0.47657 z m 4.455078,1.14454 a 64.500023,64.500023 0 0 0 3.310546,0.72851 64.500023,64.500023 0 0 1 -3.310546,-0.72851 z m 27.466791,0.20507 a 64.500023,64.500023 0 0 1 -1.8125,0.33008 64.500023,64.500023 0 0 0 1.8125,-0.33008 z"
         id="path7277"
         inkscape:connector-curvature="0" />
      <path
         style="color:#000000;clip-rule:nonzero;display:inline;overflow:visible;visibility:visible;opacity:1;isolation:auto;mix-blend-mode:normal;color-interpolation:sRGB;color-interpolation-filters:linearRGB;solid-color:#000000;solid-opacity:1;fill:#ffffff;fill-opacity:1;fill-rule:nonzero;stroke:none;stroke-width:1;stroke-linecap:butt;stroke-linejoin:miter;stroke-miterlimit:4;stroke-dasharray:none;stroke-dashoffset:0;stroke-opacity:1;color-rendering:auto;image-rendering:auto;shape-rendering:auto;text-rendering:auto;enable-background:accumulate"
         d="m 22.513584,551.49183 a 48.500023,48.500023 0 0 1 -48.500024,48.50003 48.500023,48.500023 0 0 1 -48.500023,-48.50003 48.500023,48.500023 0 0 1 48.500023,-48.50002 48.500023,48.500023 0 0 1 48.500024,48.50002 z"
         id="path7279"
         inkscape:connector-curvature="0" />
      <path
         style="color:#000000;clip-rule:nonzero;display:inline;overflow:visible;visibility:visible;opacity:1;isolation:auto;mix-blend-mode:normal;color-interpolation:sRGB;color-interpolation-filters:linearRGB;solid-color:#000000;solid-opacity:1;fill:#ffcc00;fill-opacity:1;fill-rule:nonzero;stroke:none;stroke-width:1;stroke-linecap:butt;stroke-linejoin:miter;stroke-miterlimit:4;stroke-dasharray:none;stroke-dashoffset:0;stroke-opacity:1;color-rendering:auto;image-rendering:auto;shape-rendering:auto;text-rendering:auto;enable-background:accumulate"
         d="m 5.513534,422.99181 48,0 0,16 63.999996,0 0,80 16,0 0,80 -32,0 0,64 -63.999996,0 0,16 -32,0 0,-48 64,0 0,-48 47.999996,0 0,-48 -31.999996,0 0,-64 -64,0 0,-16 -16,0 z"
         id="path7281"
         inkscape:connector-curvature="0"
         sodipodi:nodetypes="ccccccccccccccccccccccc" />
      <path
         sodipodi:nodetypes="ccccccccccccccccccccccc"
         inkscape:connector-curvature="0"
         id="path7283"
         d="m 5.513534,422.99181 48,0 0,16 63.999996,0 0,80 16,0 0,80 -32,0 0,64 -63.999996,0 0,16 -32,0 0,-48 64,0 0,-48 47.999996,0 0,-48 -31.999996,0 0,-64 -64,0 0,-16 -16,0 z"
         style="color:#000000;clip-rule:nonzero;display:inline;overflow:visible;visibility:visible;opacity:1;isolation:auto;mix-blend-mode:normal;color-interpolation:sRGB;color-interpolation-filters:linearRGB;solid-color:#000000;solid-opacity:1;fill:#ffcc00;fill-opacity:1;fill-rule:nonzero;stroke:#ffffff;stroke-width:11.9763279;stroke-linecap:butt;stroke-linejoin:miter;stroke-miterlimit:4;stroke-dasharray:143.71593113, 11.97632759;stroke-dashoffset:0;stroke-opacity:1;color-rendering:auto;image-rendering:auto;shape-rendering:auto;text-rendering:auto;enable-background:accumulate" />
    </g>
  </g>
</svg>
