<?xml version="1.0" encoding="UTF-8" standalone="no"?>
<!-- Created with Inkscape (http://www.inkscape.org/) -->

<svg
   xmlns:dc="http://purl.org/dc/elements/1.1/"
   xmlns:cc="http://creativecommons.org/ns#"
   xmlns:rdf="http://www.w3.org/1999/02/22-rdf-syntax-ns#"
   xmlns:svg="http://www.w3.org/2000/svg"
   xmlns="http://www.w3.org/2000/svg"
   xmlns:sodipodi="http://sodipodi.sourceforge.net/DTD/sodipodi-0.dtd"
   xmlns:inkscape="http://www.inkscape.org/namespaces/inkscape"
   width="300"
   height="300"
   viewBox="0 0 300 300"
   id="svg2"
   version="1.1"
   inkscape:version="0.91 r13725"
   sodipodi:docname="scholarly_commons_logo.svg">
  <defs
     id="defs4" />
  <sodipodi:namedview
     id="base"
     pagecolor="#ffffff"
     bordercolor="#666666"
     borderopacity="1.0"
     inkscape:pageopacity="0.0"
     inkscape:pageshadow="2"
     inkscape:zoom="1.97"
     inkscape:cx="150"
     inkscape:cy="150"
     inkscape:document-units="px"
     inkscape:current-layer="layer1"
     showgrid="false"
     units="px"
     inkscape:window-width="1362"
     inkscape:window-height="747"
     inkscape:window-x="0"
     inkscape:window-y="17"
     inkscape:window-maximized="0" />
  <metadata
     id="metadata7">
    <rdf:RDF>
      <cc:Work
         rdf:about="">
        <dc:format>image/svg+xml</dc:format>
        <dc:type
           rdf:resource="http://purl.org/dc/dcmitype/StillImage" />
        <dc:title></dc:title>
      </cc:Work>
    </rdf:RDF>
  </metadata>
  <g
     inkscape:label="Layer 1"
     inkscape:groupmode="layer"
     id="layer1"
     transform="translate(0,-752.36216)">
    <path
       style="opacity:1;fill:#000000;fill-opacity:1;stroke:none;stroke-width:5;stroke-linecap:butt;stroke-linejoin:miter;stroke-miterlimit:4;stroke-dasharray:none;stroke-dashoffset:0;stroke-opacity:1"
       d="m 201.20312,273.54492 c -0.12275,0.0591 67.36234,-84.56449 67.33204,-84.43164 -0.0303,0.13284 -24.1143,-105.389732 -24.0293,-105.283202 0.0849,0.10653 -97.43314,-46.855469 -97.29688,-46.855469 0.13626,0 -97.383784,46.961999 -97.298824,46.855469 0.08496,-0.10654 -23.998977,105.416042 -24.029297,105.283202 -0.03032,-0.13284 67.454798,84.49064 67.332032,84.43164 l 35.943039,-57.00435 c 0.0884,0.0426 -48.992326,-39.54731 -48.970502,-39.45169 0.02182,0.0956 11.774267,-77.196073 11.713118,-77.119393 -0.06115,0.0767 55.310434,-31.848393 55.310434,-31.848393 -0.001,-0.09809 64.50864,29.894617 64.44749,29.817937 -0.0611,-0.0767 24.25789,84.829229 24.27971,84.733609 0.0218,-0.0956 -44.36851,68.93586 -44.28015,68.89331 z"
       transform="translate(0,752.36216)"
       id="path4155"
       inkscape:connector-curvature="0"
       sodipodi:nodetypes="cccscsccscscccc" />
  </g>
</svg>
