<?xml version="1.0" encoding="UTF-8" standalone="no"?>
<!-- Created with Inkscape (http://www.inkscape.org/) -->

<svg
   xmlns:dc="http://purl.org/dc/elements/1.1/"
   xmlns:cc="http://creativecommons.org/ns#"
   xmlns:rdf="http://www.w3.org/1999/02/22-rdf-syntax-ns#"
   xmlns:svg="http://www.w3.org/2000/svg"
   xmlns="http://www.w3.org/2000/svg"
   xmlns:xlink="http://www.w3.org/1999/xlink"
   xmlns:sodipodi="http://sodipodi.sourceforge.net/DTD/sodipodi-0.dtd"
   xmlns:inkscape="http://www.inkscape.org/namespaces/inkscape"
   width="256"
   height="256"
   viewBox="0 0 256 256"
   id="svg10464"
   version="1.1"
   inkscape:version="0.92.1 r"
   sodipodi:docname="inclusivity.svg"
   inkscape:export-filename="/home/chris/devel/pentandra/scholarly_commons/scoms_wg/commons_logo/icons/inclusivity_prototype_2.png"
   inkscape:export-xdpi="90"
   inkscape:export-ydpi="90">
  <title
     id="title8761">Logo for the Defining the Scholarly Commons workshop (San Diego version)</title>
  <defs
     id="defs10466" />
  <sodipodi:namedview
     id="base"
     pagecolor="#ffffff"
     bordercolor="#666666"
     borderopacity="1.0"
     inkscape:pageopacity="0.0"
     inkscape:pageshadow="2"
     inkscape:zoom="3.4648438"
     inkscape:cx="128"
     inkscape:cy="128"
     inkscape:document-units="px"
     inkscape:current-layer="layer4"
     showgrid="false"
     units="px"
     inkscape:snap-page="true"
     inkscape:snap-bbox="false"
     inkscape:bbox-nodes="true"
     inkscape:bbox-paths="false"
     inkscape:object-nodes="true"
     inkscape:object-paths="false"
     showguides="false"
     inkscape:guide-bbox="true"
     inkscape:window-width="1676"
     inkscape:window-height="1046"
     inkscape:window-x="0"
     inkscape:window-y="0"
     inkscape:window-maximized="0"
     inkscape:snap-nodes="false"
     inkscape:showpageshadow="false"
     showborder="false"
     inkscape:snap-bbox-midpoints="true"
     inkscape:snap-object-midpoints="true">
    <sodipodi:guide
       position="256,256"
       orientation="0,1"
       id="guide5991"
       inkscape:locked="false" />
    <sodipodi:guide
       position="232,168"
       orientation="0,1"
       id="guide5993"
       inkscape:locked="false" />
    <sodipodi:guide
       position="240,24"
       orientation="0,1"
       id="guide5997"
       inkscape:locked="false" />
    <sodipodi:guide
       position="232,136"
       orientation="1,0"
       id="guide5999"
       inkscape:locked="false" />
    <sodipodi:guide
       position="176,152"
       orientation="1,0"
       id="guide6001"
       inkscape:locked="false" />
    <sodipodi:guide
       position="256,155.32995"
       orientation="1,0"
       id="guide6003"
       inkscape:locked="false" />
    <inkscape:grid
       type="axonomgrid"
       id="grid6007"
       units="px"
       empspacing="3"
       spacingy="9.2"
       gridanglex="30"
       originx="0"
       visible="true"
       enabled="false" />
    <inkscape:grid
       type="xygrid"
       id="grid7872"
       dotted="false"
       enabled="true"
       empspacing="2"
       color="#ff2b00"
       opacity="0.1254902"
       snapvisiblegridlinesonly="false"
       spacingx="8"
       spacingy="8" />
  </sodipodi:namedview>
  <metadata
     id="metadata10469">
    <rdf:RDF>
      <cc:Work
         rdf:about="">
        <dc:format>image/svg+xml</dc:format>
        <dc:type
           rdf:resource="http://purl.org/dc/dcmitype/StillImage" />
        <dc:title>Logo for the Defining the Scholarly Commons workshop (San Diego version)</dc:title>
        <dc:date>2016-09-13</dc:date>
        <dc:creator>
          <cc:Agent>
            <dc:title>Scholarly Commons Working Group</dc:title>
          </cc:Agent>
        </dc:creator>
        <dc:publisher>
          <cc:Agent>
            <dc:title>FORCE11</dc:title>
          </cc:Agent>
        </dc:publisher>
        <dc:subject>
          <rdf:Bag>
            <rdf:li>Palacio de Comunicaciones</rdf:li>
            <rdf:li>scholarly commons</rdf:li>
            <rdf:li>scholarship</rdf:li>
            <rdf:li>commoning</rdf:li>
            <rdf:li>knowledge</rdf:li>
            <rdf:li>light</rdf:li>
            <rdf:li>understanding</rdf:li>
          </rdf:Bag>
        </dc:subject>
        <dc:description>A common man with an eye of light; a convergence of thought around scholarship, based on the clock at the top of the Palacio de Comunicaciones in Madrid, Spain.</dc:description>
        <cc:license
           rdf:resource="http://creativecommons.org/licenses/by/4.0/" />
      </cc:Work>
      <cc:License
         rdf:about="http://creativecommons.org/licenses/by/4.0/">
        <cc:permits
           rdf:resource="http://creativecommons.org/ns#Reproduction" />
        <cc:permits
           rdf:resource="http://creativecommons.org/ns#Distribution" />
        <cc:requires
           rdf:resource="http://creativecommons.org/ns#Notice" />
        <cc:requires
           rdf:resource="http://creativecommons.org/ns#Attribution" />
        <cc:permits
           rdf:resource="http://creativecommons.org/ns#DerivativeWorks" />
      </cc:License>
    </rdf:RDF>
  </metadata>
  <g
     inkscape:groupmode="layer"
     id="layer4"
     inkscape:label="San Diego"
     style="display:none">
    <rect
       style="color:#000000;clip-rule:nonzero;display:inline;overflow:visible;visibility:visible;opacity:1;isolation:auto;mix-blend-mode:normal;color-interpolation:sRGB;color-interpolation-filters:linearRGB;solid-color:#000000;solid-opacity:1;fill:#266b82;fill-opacity:1;fill-rule:evenodd;stroke:none;stroke-width:35;stroke-linecap:butt;stroke-linejoin:miter;stroke-miterlimit:4;stroke-dasharray:none;stroke-dashoffset:0;stroke-opacity:1;color-rendering:auto;image-rendering:auto;shape-rendering:auto;text-rendering:auto;enable-background:accumulate"
       id="rect11026"
       width="256"
       height="255.99998"
       x="0"
       y="796.36218"
       transform="translate(0,-796.36216)" />
  </g>
  <g
     inkscape:label="eye of light"
     inkscape:groupmode="layer"
     id="layer1"
     transform="translate(0,-796.36216)"
     style="display:inline">
    <path
       style="color:#000000;clip-rule:nonzero;display:inline;overflow:visible;visibility:visible;opacity:1;isolation:auto;mix-blend-mode:normal;color-interpolation:sRGB;color-interpolation-filters:linearRGB;solid-color:#000000;solid-opacity:1;fill:#266b82;fill-opacity:1;fill-rule:nonzero;stroke:none;stroke-width:1.34108579;stroke-linecap:butt;stroke-linejoin:miter;stroke-miterlimit:4;stroke-dasharray:none;stroke-dashoffset:0;stroke-opacity:1;color-rendering:auto;image-rendering:auto;shape-rendering:auto;text-rendering:auto;enable-background:accumulate"
       d="m 128,837.86218 a 86.500065,86.500065 0 0 0 -7.20833,0.37718 L 128,924.36222 147.26501,840.11741 A 86.500065,86.500065 0 0 0 128,837.86218 Z m 0,86.50004 59.89311,-62.31335 A 86.500065,86.500065 0 0 0 170.7445,849.2326 Z m 0,0 82.22533,-26.44454 A 86.500065,86.500065 0 0 0 202.095,880.00161 Z m 0,0 84.06146,19.95912 a 86.500065,86.500065 0 0 0 2.43858,-19.95912 86.500065,86.500065 0 0 0 -0.26456,-5.00027 z m 0,0 64.02899,57.96266 a 86.500065,86.500065 0 0 0 12.59626,-17.91606 z m 0,0 28.04755,81.65688 a 86.500065,86.500065 0 0 0 18.63115,-8.96847 z m 0,0 -14.36166,85.28208 a 86.500065,86.500065 0 0 0 14.36166,1.2179 86.500065,86.500065 0 0 0 8.55467,-0.4478 z m 0,0 -43.171433,74.77863 a 86.500065,86.500065 0 0 0 12.897473,6.19725 z m 0,0 -74.786483,43.17667 a 86.500065,86.500065 0 0 0 13.688504,17.92393 z m 0,0 H 41.499971 a 86.500065,86.500065 0 0 0 3.077687,22.35056 z m 0,0 -71.850239,-47.99359 a 86.500065,86.500065 0 0 0 -11.669018,25.61422 z m 0,0 -31.261439,-80.47563 a 86.500065,86.500065 0 0 0 -21.588338,12.16145 z m -8.24296,-86.06785 a 86.500065,86.500065 0 0 0 -1.52967,0.19645 86.500065,86.500065 0 0 1 1.52967,-0.19645 z m -8.22986,1.22583 a 86.500065,86.500065 0 0 0 -2.17927,0.48719 86.500065,86.500065 0 0 1 2.17927,-0.48719 z m 38.87577,1.39871 a 86.500065,86.500065 0 0 1 4.16993,1.17607 86.500065,86.500065 0 0 0 -4.16993,-1.17607 z m -47.56664,0.76746 a 86.500065,86.500065 0 0 0 -1.19964,0.40076 86.500065,86.500065 0 0 1 1.19964,-0.40076 z m 55.8096,1.89638 a 86.500065,86.500065 0 0 1 3.99182,1.56897 86.500065,86.500065 0 0 0 -3.99182,-1.56897 z m 8.48132,3.73775 a 86.500065,86.500065 0 0 1 2.93624,1.49301 86.500065,86.500065 0 0 0 -2.93624,-1.49301 z m -94.449634,10.6082 a 86.500065,86.500065 0 0 0 -2.00639,1.80209 86.500065,86.500065 0 0 1 2.00639,-1.80209 z m -6.3623,5.86201 a 86.500065,86.500065 0 0 0 -1.74184,1.9121 86.500065,86.500065 0 0 1 1.74184,-1.9121 z m -5.778194,6.5116 a 86.500065,86.500065 0 0 0 -1.375136,1.85185 86.500065,86.500065 0 0 1 1.375136,-1.85185 z m -17.504836,38.14761 a 86.500065,86.500065 0 0 0 -0.636492,4.20399 86.500065,86.500065 0 0 1 0.636492,-4.20399 z m 168.672974,37.46134 a 86.500065,86.500065 0 0 1 -1.20488,4.14375 86.500065,86.500065 0 0 0 1.20488,-4.14375 z m -2.57216,8.25868 a 86.500065,86.500065 0 0 1 -1.60564,3.97873 86.500065,86.500065 0 0 0 1.60564,-3.97873 z M 47.948708,956.8626 a 86.500065,86.500065 0 0 0 0.586725,1.49562 86.500065,86.500065 0 0 1 -0.586725,-1.49562 z m 157.333982,6.30204 a 86.500065,86.500065 0 0 1 -0.33003,0.67317 86.500065,86.500065 0 0 0 0.33003,-0.67317 z m -153.391924,2.10855 a 86.500065,86.500065 0 0 0 0.350988,0.68626 86.500065,86.500065 0 0 1 -0.350988,-0.68626 z m 138.807614,18.56566 a 86.500065,86.500065 0 0 1 -2.04043,2.04043 86.500065,86.500065 0 0 0 2.04043,-2.04043 z m -6.22085,5.94059 a 86.500065,86.500065 0 0 1 -2.34952,1.91733 86.500065,86.500065 0 0 0 2.34952,-1.91733 z m -111.268215,1.38823 a 86.500065,86.500065 0 0 0 2.069254,1.65016 86.500065,86.500065 0 0 1 -2.069254,-1.65016 z m 103.934145,4.32448 a 86.500065,86.500065 0 0 1 -0.60505,0.41647 86.500065,86.500065 0 0 0 0.60505,-0.41647 z m -96.922256,0.85651 a 86.500065,86.500065 0 0 0 2.090208,1.34894 86.500065,86.500065 0 0 1 -2.090208,-1.34894 z m 73.717816,10.44584 a 86.500065,86.500065 0 0 1 -1.38563,0.4007 86.500065,86.500065 0 0 0 1.38563,-0.4007 z m -50.88531,0.3169 a 86.500065,86.500065 0 0 0 1.98544,0.6391 86.500065,86.500065 0 0 1 -1.98544,-0.6391 z m 5.97465,1.5349 a 86.500065,86.500065 0 0 0 4.43972,0.977 86.500065,86.500065 0 0 1 -4.43972,-0.977 z m 36.83532,0.275 a 86.500065,86.500065 0 0 1 -2.43071,0.4427 86.500065,86.500065 0 0 0 2.43071,-0.4427 z"
       id="path8067"
       inkscape:connector-curvature="0" />
    <path
       style="color:#000000;clip-rule:nonzero;display:inline;overflow:visible;visibility:visible;opacity:1;isolation:auto;mix-blend-mode:normal;color-interpolation:sRGB;color-interpolation-filters:linearRGB;solid-color:#000000;solid-opacity:1;fill:#ffcc00;fill-opacity:1;fill-rule:nonzero;stroke:none;stroke-width:1.34108579;stroke-linecap:butt;stroke-linejoin:miter;stroke-miterlimit:4;stroke-dasharray:none;stroke-dashoffset:0;stroke-opacity:1;color-rendering:auto;image-rendering:auto;shape-rendering:auto;text-rendering:auto;enable-background:accumulate"
       d="m 193.04273,924.36225 a 65.042692,65.042692 0 0 1 -65.04269,65.0427 65.042692,65.042692 0 0 1 -65.042697,-65.0427 65.042692,65.042692 0 0 1 65.042697,-65.04269 65.042692,65.042692 0 0 1 65.04269,65.04269 z"
       id="circle8069"
       inkscape:connector-curvature="0" />
    <path
       cx="96.500023"
       cy="924.86218"
       r="64.500023"
       id="path8071"
       style="color:#000000;clip-rule:nonzero;display:inline;overflow:visible;visibility:visible;opacity:1;isolation:auto;mix-blend-mode:normal;color-interpolation:sRGB;color-interpolation-filters:linearRGB;solid-color:#000000;solid-opacity:1;fill:#ffcc00;fill-opacity:1;fill-rule:nonzero;stroke:#ffcc00;stroke-width:1;stroke-linecap:butt;stroke-linejoin:miter;stroke-miterlimit:4;stroke-dasharray:none;stroke-dashoffset:0;stroke-opacity:1;color-rendering:auto;image-rendering:auto;shape-rendering:auto;text-rendering:auto;enable-background:accumulate"
       d=""
       inkscape:connector-curvature="0" />
  </g>
  <g
     inkscape:groupmode="layer"
     id="layer3"
     inkscape:label="convergence"
     style="display:none">
    <path
       style="color:#000000;clip-rule:nonzero;display:inline;overflow:visible;visibility:visible;opacity:1;isolation:auto;mix-blend-mode:normal;color-interpolation:sRGB;color-interpolation-filters:linearRGB;solid-color:#000000;solid-opacity:1;fill:#ffcc00;fill-opacity:1;fill-rule:nonzero;stroke:none;stroke-width:1;stroke-linecap:butt;stroke-linejoin:miter;stroke-miterlimit:4;stroke-dasharray:none;stroke-dashoffset:0;stroke-opacity:1;color-rendering:auto;image-rendering:auto;shape-rendering:auto;text-rendering:auto;enable-background:accumulate"
       d="m 128,0 h 48 v 16 h 64 v 80 h 16 v 80 h -32 v 64 h -64 v 16 h -32 v -48 h 64 v -48 h 48 V 112 H 208 V 48 H 144 V 32 h -16 z"
       id="path7949"
       inkscape:connector-curvature="0"
       sodipodi:nodetypes="ccccccccccccccccccccccc" />
  </g>
  <g
     inkscape:groupmode="layer"
     id="layer2"
     inkscape:label="Palacio de Comunicaciones"
     style="display:none"
     transform="translate(0,-44)"
     sodipodi:insensitive="true">
    <image
       sodipodi:absref="/home/chris/devel/pentandra/scholarly_commons/scoms_wg/madrid_workshop/9301215.jpg"
       xlink:href="file:///home/chris/devel/pentandra/scholarly_commons/scoms_wg/madrid_workshop/9301215.jpg"
       width="7067.0244"
       height="4680.0142"
       preserveAspectRatio="none"
       id="image4382"
       x="-3174.4038"
       y="-1126.9285"
       style="display:inline;opacity:0.8"
       transform="rotate(89)" />
  </g>
</svg>
